<?xml version="1.0" standalone="no"?>
<!DOCTYPE svg PUBLIC "-//W3C//DTD SVG 20010904//EN"
 "http://www.w3.org/TR/2001/REC-SVG-20010904/DTD/svg10.dtd">
<svg version="1.0" xmlns="http://www.w3.org/2000/svg"
 width="720.000000pt" height="720.000000pt" viewBox="0 0 720.000000 720.000000"
 preserveAspectRatio="xMidYMid meet">
<metadata>
Created by potrace 1.14, written by Peter Selinger 2001-2017
</metadata>
<g transform="translate(0.000000,720.000000) scale(0.100000,-0.100000)"
fill="#000000" stroke="none">
<path d="M0 6994 l0 -205 293 5 c160 3 536 7 835 10 496 4 543 3 551 -13 8
-16 15 -129 27 -426 3 -82 7 -155 9 -162 2 -6 13 -9 24 -6 15 4 21 1 21 -11 0
-9 -8 -16 -19 -16 -19 0 -20 -7 -17 -98 1 -54 5 -103 9 -109 4 -6 1 -18 -7
-26 -13 -12 -82 -16 -403 -21 -213 -3 -534 -10 -712 -14 l-325 -7 3 -60 c2
-33 4 -71 6 -85 1 -14 3 -30 4 -37 1 -9 39 -13 138 -15 l138 -3 11 -53 c8 -34
9 -65 3 -84 -4 -17 -6 -35 -3 -39 10 -17 32 -9 38 14 l7 22 16 -22 c14 -21 23
-23 114 -23 55 0 99 3 99 6 0 3 -7 12 -15 21 -17 16 -12 33 11 33 21 0 17 31
-6 37 -25 7 -26 40 -1 48 10 3 21 14 24 24 2 10 10 18 18 19 13 2 249 9 418
12 38 1 68 -3 75 -10 8 -9 8 -14 -2 -17 -15 -6 0 -16 76 -52 23 -11 45 -27 48
-35 3 -9 13 -16 21 -16 12 0 13 3 4 14 -9 11 -8 15 5 20 36 14 41 7 48 -67 8
-95 3 -110 -38 -102 -26 5 -28 4 -13 -5 10 -7 29 -9 42 -6 19 5 24 1 30 -21 7
-29 -6 -43 -42 -43 -33 0 -28 -13 10 -30 56 -24 72 -27 84 -18 6 5 24 8 40 6
22 -2 29 -9 31 -31 4 -34 27 -31 27 4 0 20 6 25 34 27 44 4 55 -9 58 -69 1
-28 4 -57 7 -65 6 -16 76 -20 76 -4 0 6 7 10 15 10 8 0 15 -7 15 -15 0 -8 -6
-15 -12 -15 -7 0 -2 -6 12 -13 36 -18 49 -53 69 -185 10 -64 21 -124 24 -132
3 -8 13 -41 22 -72 9 -32 20 -60 25 -63 4 -3 11 -17 14 -31 4 -15 45 -105 92
-201 90 -184 91 -190 53 -245 -17 -23 -19 -40 -15 -143 5 -112 16 -153 38
-139 5 4 51 8 101 9 70 2 92 7 99 19 12 21 47 21 55 0 3 -9 2 -24 -4 -33 -5
-9 -6 -28 -2 -44 8 -32 3 -57 -13 -57 -6 0 -5 -6 2 -15 6 -8 9 -19 5 -25 -4
-7 5 -25 21 -41 20 -21 38 -29 63 -30 35 0 195 -6 218 -8 6 -1 17 -18 23 -38
15 -51 30 -82 56 -118 23 -31 91 -153 145 -260 17 -33 39 -73 50 -90 10 -16
23 -40 29 -52 5 -13 16 -23 25 -23 8 0 15 -4 15 -10 0 -5 18 -10 39 -10 22 0
42 -4 45 -9 3 -5 49 -17 102 -27 55 -10 98 -24 101 -31 3 -7 18 -13 34 -13 22
0 29 -5 29 -19 0 -20 26 -34 51 -29 15 3 16 -34 4 -84 -6 -23 -4 -28 11 -29
14 -1 12 -3 -6 -8 -18 -5 -25 -14 -25 -31 0 -16 -8 -28 -22 -35 -12 -5 -24
-18 -27 -28 -2 -11 -9 -17 -13 -14 -5 3 -15 2 -23 -4 -13 -7 -13 -9 0 -10 47
-4 44 0 52 -69 2 -20 -4 -28 -31 -41 -23 -11 -30 -18 -20 -21 11 -5 10 -7 -5
-13 -11 -5 -21 -3 -26 6 -7 11 -15 9 -40 -9 l-31 -23 -46 30 c-26 17 -43 31
-39 31 4 0 -3 18 -15 40 -21 38 -55 58 -43 25 11 -28 -27 -16 -59 18 -44 45
-68 77 -60 77 4 0 -9 17 -28 38 -54 56 -70 102 -80 225 -5 61 -11 113 -14 115
-10 10 -42 -29 -69 -83 -32 -62 -46 -110 -53 -176 -4 -37 -12 -54 -42 -83 -21
-20 -52 -45 -68 -54 -17 -9 -65 -39 -106 -67 -158 -104 -204 -130 -262 -148
-33 -10 -109 -34 -169 -53 -60 -19 -111 -32 -113 -30 -2 2 -8 88 -14 192 -6
104 -12 195 -14 201 -9 29 -242 -8 -262 -41 -4 -6 -7 -27 -8 -46 0 -31 -3 -35
-28 -38 l-28 -3 31 -29 31 -29 -3 -148 c-2 -82 -7 -154 -12 -161 -4 -6 -28
-13 -54 -13 -26 -1 -60 -5 -77 -9 -25 -6 -27 -8 -12 -14 39 -18 12 -66 -36
-66 -22 0 -28 -4 -23 -16 3 -9 6 -18 6 -20 0 -3 4 -3 9 1 5 3 12 1 16 -5 3 -6
-2 -13 -12 -17 -10 -3 -28 -13 -40 -21 -18 -11 -20 -17 -10 -32 9 -16 7 -24
-13 -45 -23 -25 -24 -27 -7 -39 18 -14 24 -46 7 -46 -5 0 -10 -7 -10 -15 0 -8
7 -15 15 -15 8 0 14 -3 12 -7 -1 -5 3 -9 8 -11 6 -2 12 5 14 15 4 25 21 43 37
43 20 0 17 -28 -7 -61 -17 -24 -25 -28 -46 -23 -22 6 -25 4 -20 -9 4 -10 -1
-20 -11 -26 -9 -6 -12 -11 -7 -11 7 0 9 -16 7 -37 -3 -38 -3 -38 11 -12 8 14
17 38 21 53 13 54 17 18 6 -61 -5 -43 -14 -136 -18 -206 -5 -71 -13 -132 -18
-135 -5 -4 -9 -25 -10 -47 0 -22 -8 -74 -18 -115 -10 -41 -20 -91 -23 -111
-13 -102 -28 -143 -53 -150 -24 -7 -25 -7 -2 -8 22 -1 23 -3 17 -63 -4 -35 -9
-70 -12 -78 -3 -8 -7 -40 -9 -70 -8 -122 -26 -307 -35 -353 -5 -28 -9 -69 -9
-93 0 -23 -4 -45 -9 -48 -5 -3 -12 -41 -16 -83 -4 -43 -13 -112 -20 -153 -7
-41 -13 -92 -13 -113 l0 -37 921 2 921 3 9 37 c12 51 30 49 25 -2 l-4 -40
1537 0 1536 0 -22 63 c-12 34 -25 69 -29 77 -3 8 -10 42 -15 75 -16 113 -52
280 -66 315 -8 19 -17 53 -21 75 -3 22 -19 92 -34 155 -20 84 -29 152 -33 251
-11 262 -110 711 -212 965 -19 48 -35 90 -35 95 0 5 15 0 34 -10 21 -12 37
-16 43 -10 5 5 17 7 27 3 14 -5 16 -14 11 -45 -6 -32 -4 -39 9 -39 9 0 16 8
16 20 0 24 36 35 84 26 38 -7 55 6 36 29 -10 12 -9 16 3 21 30 11 52 0 55 -28
3 -24 6 -26 22 -16 22 14 52 -5 43 -28 -3 -9 2 -14 16 -14 16 0 20 6 18 23 -2
17 3 22 23 22 29 0 38 -26 17 -47 -9 -9 -11 -21 -6 -35 11 -30 29 -38 29 -14
0 12 -5 21 -11 21 -5 0 -7 5 -4 10 3 6 15 10 26 10 17 0 18 3 9 20 -13 25 -5
40 20 40 10 0 20 6 22 12 3 9 11 8 30 -4 19 -12 28 -14 36 -6 18 18 22 5 5
-17 -11 -14 -17 -16 -20 -7 -8 20 -43 15 -43 -7 0 -17 8 -18 95 -15 52 1 100
6 105 9 15 10 12 -2 -6 -20 -13 -12 -34 -16 -88 -15 -39 1 -74 1 -78 -1 -5 -1
-13 -2 -19 -3 -14 -1 -36 -33 -28 -40 2 -3 33 -1 68 4 35 5 88 7 119 5 30 -2
63 0 74 6 18 10 18 11 -2 36 -25 32 -25 43 -2 43 14 0 15 -2 2 -10 -10 -7 3
-8 43 -6 31 3 57 1 57 -5 0 -5 -4 -9 -9 -9 -5 0 -13 -9 -16 -20 -3 -11 -13
-20 -21 -20 -8 0 -14 -4 -14 -10 0 -13 32 -13 48 0 9 7 9 7 2 -2 -6 -7 -5 -18
1 -31 14 -25 -1 -39 -37 -35 -25 3 -29 7 -26 32 4 34 -21 32 -26 -3 -2 -12
-14 -26 -27 -31 -33 -13 -46 -35 -14 -26 50 16 64 12 64 -14 0 -21 -6 -26 -40
-31 -46 -7 -27 -11 62 -13 78 -2 88 -11 26 -24 -35 -8 -50 -8 -56 1 -6 9 -10
9 -13 1 -3 -8 -19 -10 -44 -7 -45 6 -93 -3 -85 -17 3 -5 55 -9 116 -8 61 0
113 -2 116 -5 3 -4 2 -14 -2 -24 -5 -10 -7 -26 -6 -36 2 -14 -3 -17 -26 -12
-15 3 -21 2 -13 -1 20 -9 35 -34 35 -59 0 -13 8 -21 23 -23 42 -6 11 -22 -43
-22 -39 0 -54 -4 -59 -16 -9 -23 -9 -23 23 -11 40 15 65 3 57 -28 -5 -18 -2
-25 9 -25 16 0 21 -36 5 -42 -6 -2 -6 -15 0 -38 9 -35 10 -35 60 -32 32 3 50
0 50 -7 0 -10 -11 -12 -80 -15 -15 -1 -25 -7 -25 -16 0 -15 -2 -15 170 -7 38
2 40 1 37 -25 -1 -16 2 -28 8 -28 18 0 11 -17 -12 -28 -16 -8 -18 -11 -7 -11
22 -1 29 -48 29 -205 0 -71 2 -127 4 -125 9 9 16 418 23 1256 l6 883 -90 0
c-89 0 -136 -13 -162 -43 -9 -12 -12 -121 -9 -347 1 -106 -4 -125 -32 -125
-28 0 -41 -32 -16 -41 18 -7 22 -34 5 -34 -6 0 -23 -9 -37 -20 l-26 -21 42 7
c35 5 42 4 42 -10 0 -9 -8 -19 -17 -22 -10 -3 -26 -10 -35 -15 -10 -5 -27 -9
-38 -9 -12 0 -18 -4 -15 -10 10 -16 47 -12 60 7 12 16 14 16 39 0 30 -20 26
-40 -7 -35 -14 2 -21 -2 -19 -11 3 -15 -35 -51 -55 -51 -7 0 -13 -7 -13 -15 0
-8 -9 -15 -20 -15 -11 0 -23 7 -26 15 -4 8 -14 15 -23 16 -9 0 -11 3 -5 5 6 3
9 15 7 28 -3 13 0 27 6 30 13 9 14 59 2 84 -5 9 -17 34 -27 55 -26 52 -59 52
-59 0 0 -33 -3 -38 -25 -40 -147 -15 -165 -19 -165 -33 0 -11 10 -14 38 -12
33 3 38 0 35 -15 -2 -12 -12 -17 -28 -16 -14 1 -32 -1 -40 -4 -8 -3 -85 -7
-170 -9 -85 -2 -220 -6 -300 -9 l-145 -6 -32 30 c-53 48 -193 145 -277 191
-43 23 -81 50 -83 59 -5 19 -76 54 -273 137 -156 65 -232 102 -242 118 -11 17
-9 174 2 181 13 8 129 15 277 16 97 0 123 4 123 14 0 23 22 29 36 10 12 -17
31 -17 281 -11 147 3 314 9 371 13 91 5 102 8 102 24 0 14 7 19 25 19 16 0 25
-6 25 -15 0 -10 10 -15 32 -15 34 0 29 15 -7 22 -12 2 -21 13 -23 26 -2 12
-10 22 -17 22 -21 0 -28 19 -15 35 18 21 29 19 42 -10 14 -32 38 -32 38 -1 0
20 16 36 36 36 2 0 4 -13 4 -29 0 -36 35 -51 43 -17 2 11 7 28 11 36 3 8 2 22
-4 30 -8 13 -11 12 -24 -5 -12 -16 -16 -17 -30 -6 -21 18 -20 48 2 60 16 9 16
10 0 16 -10 4 -18 15 -18 25 0 15 13 18 108 20 59 2 123 3 143 2 29 -1 38 3
42 18 7 27 47 27 47 0 0 -10 -9 -24 -20 -30 -23 -12 -17 -36 11 -43 26 -7 35
-35 16 -50 -8 -7 -17 -31 -21 -54 -5 -37 -4 -41 13 -36 14 3 18 13 17 36 -1
29 2 32 29 33 17 0 36 -2 43 -6 8 -4 36 -1 63 6 59 15 81 10 77 -20 -3 -18
-10 -21 -45 -21 -50 0 -62 -9 -34 -27 12 -7 21 -22 21 -34 0 -29 18 -34 95
-27 52 5 65 9 60 20 -3 8 -5 19 -5 24 0 5 -10 9 -22 9 -37 0 -51 15 -44 44 3
14 11 26 16 26 5 0 21 5 37 12 l28 12 -40 5 c-32 5 -41 11 -43 28 -3 17 3 26
22 33 31 11 35 20 5 13 -15 -4 -22 0 -26 16 -6 22 -14 23 -53 7 -9 -4 -24 0
-35 8 -19 14 -19 16 -2 33 14 15 22 16 47 6 25 -10 36 -9 60 5 16 9 31 26 34
38 5 18 13 21 61 21 51 0 55 -2 55 -23 0 -33 33 -32 48 1 15 32 49 34 54 3 4
-33 45 -37 50 -6 2 19 9 23 37 23 45 0 52 -23 12 -38 -21 -8 -31 -18 -31 -32
0 -29 -19 -45 -52 -45 -15 0 -28 -4 -28 -10 0 -17 60 -12 67 6 5 12 15 14 53
9 38 -5 48 -3 53 9 4 9 15 16 26 16 12 0 20 9 23 25 3 13 2 24 -1 23 -30 -3
-46 35 -18 45 24 8 49 -5 44 -24 -3 -12 0 -19 8 -19 8 0 11 7 8 19 -3 13 2 24
16 33 27 17 28 54 1 61 -23 6 -17 37 6 37 19 0 18 46 -1 54 -8 3 -15 12 -15
21 0 9 7 18 15 21 8 4 15 18 15 32 0 20 -3 23 -12 14 -16 -16 -55 -15 -61 2
-3 7 -26 19 -51 27 -44 13 -58 30 -35 45 6 3 44 6 85 6 l74 -1 0 100 0 101
-312 -4 -311 -3 -1 195 -1 195 -123 -3 c-70 -2 -129 1 -135 7 -9 7 -12 270
-12 1053 l0 1043 30 2 c17 1 78 5 138 9 l107 6 0 208 0 208 53 4 c28 3 147 6
262 7 116 1 231 4 258 7 l47 7 0 143 0 144 -1054 0 c-1020 0 -1054 -1 -1077
-19 -27 -21 -77 -18 -86 5 -4 12 -398 14 -2494 14 l-2489 0 0 -206z m1540 171
c0 -24 29 -30 45 -9 14 18 14 18 15 -7 0 -30 -23 -54 -44 -46 -21 8 -49 54
-41 67 9 15 25 12 25 -5z m2485 -49 c365 -72 510 -128 755 -289 242 -159 452
-393 594 -661 46 -86 108 -240 132 -327 54 -191 55 -205 61 -490 5 -254 3
-283 -16 -382 -30 -144 -63 -258 -101 -347 -111 -260 -213 -413 -395 -595
-249 -249 -539 -406 -876 -475 -127 -26 -141 -26 -137 2 3 23 8 25 128 47 320
60 657 252 896 511 209 227 361 537 425 870 38 196 35 505 -7 694 -30 132
-134 421 -168 466 -7 8 -21 33 -31 55 -70 142 -249 357 -405 486 -187 156
-495 303 -726 348 -32 7 -81 17 -108 23 -26 6 -127 10 -225 10 -141 1 -195 -4
-272 -20 -115 -25 -253 -64 -306 -87 -263 -114 -397 -199 -551 -349 -52 -50
-117 -120 -145 -156 -28 -36 -54 -67 -57 -70 -17 -14 -102 -156 -142 -235
-163 -322 -227 -677 -184 -1025 25 -196 51 -292 134 -495 81 -197 309 -541
339 -512 3 4 -2 37 -12 74 -26 102 -34 145 -35 181 0 63 18 31 31 -53 13 -93
36 -120 25 -31 -4 39 -2 56 7 60 7 3 -3 19 -30 44 -24 22 -43 44 -43 49 0 5
12 15 26 22 22 10 30 9 46 -5 10 -10 24 -29 31 -43 9 -19 22 -27 47 -31 l35
-5 -1 -53 c-1 -33 -7 -59 -18 -70 -21 -24 -20 -42 3 -42 16 0 19 -12 25 -112
4 -62 11 -144 17 -182 11 -83 3 -99 -44 -85 -47 13 -73 49 -90 124 -13 56 -22
73 -70 123 -78 81 -96 105 -181 231 -140 208 -240 455 -286 706 -12 65 -29
371 -24 420 20 188 28 242 44 311 44 188 156 452 253 596 47 69 156 202 224
273 202 210 501 383 788 455 110 28 116 30 109 41 -3 5 0 9 5 9 6 0 11 -5 11
-11 0 -7 8 -9 23 -4 77 26 365 32 472 11z m293 -3 c-10 -2 -26 -2 -35 0 -10 3
-2 5 17 5 19 0 27 -2 18 -5z m2278 -168 c18 -14 18 -14 -8 -15 -18 0 -28 5
-28 15 0 19 11 19 36 0z m-2734 -11 c22 -11 33 -13 41 -5 19 19 102 13 121 -7
14 -17 15 -22 2 -48 -8 -16 -18 -67 -23 -114 l-8 -85 -44 -3 c-34 -3 -49 2
-68 20 l-25 23 -15 -22 c-19 -28 -67 -31 -102 -7 -19 13 -22 22 -16 48 16 79
17 101 4 138 -12 38 -12 42 10 59 28 23 82 24 123 3z m-254 -13 c50 -25 72
-52 79 -94 20 -126 -92 -220 -197 -167 -100 51 -118 163 -37 238 45 43 101 51
155 23z m-303 -37 c9 -4 26 -27 36 -52 18 -42 18 -46 3 -63 -13 -14 -14 -19
-4 -19 27 0 50 -33 50 -71 0 -72 -79 -133 -165 -125 -99 8 -166 127 -120 215
18 35 71 81 93 81 9 1 33 9 52 20 42 23 35 21 55 14z m1065 -25 c120 -45 157
-87 145 -166 -4 -30 -17 -56 -38 -80 -46 -49 -92 -53 -191 -17 -93 35 -100 49
-61 127 18 37 24 62 20 80 -9 32 20 77 49 77 11 0 46 -9 76 -21z m1600 -6 c3
-2 7 -34 10 -69 3 -35 10 -64 15 -64 6 0 11 9 11 21 3 50 58 49 60 -2 2 -43 4
-47 24 -52 11 -3 20 -9 20 -14 0 -15 -63 -47 -88 -45 -17 1 -23 -3 -21 -16 3
-31 -1 -40 -20 -45 -16 -4 -18 -10 -11 -48 10 -54 7 -59 -34 -59 -37 0 -56 28
-56 79 0 20 -6 30 -20 34 -14 3 -20 14 -20 31 0 22 -5 26 -28 26 -57 0 -68 41
-24 96 32 41 39 42 52 9 14 -37 30 -30 28 13 -1 53 11 100 30 112 16 9 60 5
72 -7z m-1287 -153 c30 -22 59 -40 64 -40 5 0 22 -13 37 -29 20 -21 26 -35 21
-50 -3 -12 -11 -21 -16 -21 -5 0 -9 -7 -9 -15 0 -19 -48 -31 -63 -16 -15 15
-27 14 -27 -4 0 -8 9 -19 20 -25 11 -6 20 -17 20 -25 0 -22 -50 -75 -71 -75
-30 0 -178 102 -185 127 -5 18 4 33 40 70 25 27 48 62 52 78 7 33 31 65 49 65
6 0 37 -18 68 -40z m-2183 -41 c0 -12 -27 -11 -35 1 -11 17 5 32 21 19 8 -6
14 -15 14 -20z m418 -50 c37 -35 40 -49 12 -74 -14 -13 -17 -22 -10 -29 5 -5
10 -18 10 -28 0 -10 11 -28 25 -40 14 -12 25 -30 25 -40 0 -20 -96 -118 -116
-118 -17 0 -54 48 -54 70 0 17 -24 41 -84 83 -14 10 -26 26 -26 35 0 22 156
172 178 172 4 0 22 -14 40 -31z m1081 -18 c20 -5 63 -15 95 -21 131 -26 296
-96 416 -176 80 -53 207 -168 280 -252 58 -67 147 -204 169 -262 8 -19 22 -48
32 -65 24 -42 54 -138 80 -258 18 -81 22 -134 22 -263 0 -158 -4 -185 -45
-354 -82 -335 -368 -679 -676 -815 -37 -16 -45 -17 -53 -4 -7 10 -8 6 -3 -14
4 -19 0 -35 -12 -54 -11 -14 -26 -38 -35 -52 -16 -27 -49 -41 -49 -21 0 6 16
28 35 48 47 50 46 64 -7 60 -33 -3 -42 -7 -40 -20 1 -9 -5 -18 -13 -22 -12 -4
-15 -18 -14 -56 2 -27 -1 -53 -6 -57 -9 -9 1 155 11 182 4 9 13 14 20 11 19
-7 18 8 -1 24 -21 18 -19 39 4 33 27 -7 35 13 17 47 -8 17 -10 32 -5 36 12 7
11 24 -1 24 -6 0 -15 -10 -20 -22 -9 -23 -9 -23 -9 2 0 14 3 32 7 41 12 29
116 110 136 107 29 -4 31 -27 4 -37 -13 -5 -28 -15 -34 -22 -16 -21 -15 -103
1 -142 8 -19 11 -43 8 -55 -5 -20 1 -18 67 18 258 142 482 392 573 640 41 112
86 316 87 389 0 56 -27 19 -34 -47 -13 -114 -59 -283 -105 -384 -51 -115 -175
-288 -270 -378 -91 -87 -279 -209 -301 -195 -14 8 -13 45 1 45 28 0 187 109
262 179 123 118 217 255 279 410 46 117 56 149 72 246 20 111 20 105 -1 105
-31 0 -83 39 -100 75 -30 64 15 146 87 157 15 2 24 9 22 17 -2 8 -9 50 -17 95
-25 139 -103 316 -203 461 -96 138 -271 282 -437 360 -546 255 -1176 29 -1449
-522 -78 -156 -126 -342 -126 -492 -1 -81 -21 -144 -36 -108 -4 10 -4 76 -1
145 10 228 74 421 201 611 224 334 558 515 951 515 146 1 228 -12 362 -55 175
-57 302 -138 454 -289 189 -188 304 -411 340 -654 8 -55 19 -96 31 -110 l18
-21 -5 30 c-24 175 -37 231 -88 360 -148 380 -469 659 -867 753 -96 23 -267
34 -358 23 -296 -36 -576 -178 -754 -383 -212 -243 -320 -511 -322 -803 -1
-71 1 -155 3 -186 4 -59 -13 -109 -31 -91 -5 5 -15 60 -21 121 -25 248 41 550
168 766 180 309 469 526 810 606 103 24 360 36 424 20z m-1609 -81 c0 -5 -7
-10 -15 -10 -8 0 -15 5 -15 10 0 6 7 10 15 10 8 0 15 -4 15 -10z m2545 -8 c6
-4 25 -26 43 -50 49 -63 43 -79 -50 -123 -33 -15 -36 -29 -8 -29 11 0 27 -12
36 -26 16 -24 16 -27 -3 -51 -10 -15 -32 -36 -47 -47 l-27 -21 -40 44 c-59 65
-105 124 -112 143 -6 17 43 68 66 68 14 0 57 40 57 53 0 32 58 59 85 39z m800
-101 c7 -12 -12 -24 -25 -16 -11 7 -4 25 10 25 5 0 11 -4 15 -9z m-245 -11 c0
-5 -4 -10 -9 -10 -6 0 -13 5 -16 10 -3 6 1 10 9 10 9 0 16 -4 16 -10z m-2835
-31 c35 -31 35 -31 18 -60 -13 -22 -14 -32 -5 -41 9 -9 16 -8 30 5 10 9 28 17
39 17 25 0 73 -36 73 -56 0 -29 -133 -204 -155 -204 -8 0 -33 22 -55 49 -23
28 -56 55 -73 61 -32 11 -77 47 -77 62 0 5 26 45 58 89 31 45 61 87 67 95 16
22 41 17 80 -17z m-855 -19 c0 -5 -4 -10 -10 -10 -5 0 -10 5 -10 10 0 6 5 10
10 10 6 0 10 -4 10 -10z m3642 -32 c-9 -9 -15 -9 -24 0 -10 10 -10 15 2 22 9
6 19 5 24 0 7 -7 6 -14 -2 -22z m123 22 c3 -6 -1 -13 -10 -16 -19 -8 -30 0
-20 15 8 14 22 14 30 1z m109 -11 c-3 -5 -10 -7 -15 -3 -5 3 -7 10 -3 15 3 5
10 7 15 3 5 -3 7 -10 3 -15z m-1709 -9 c-3 -5 -10 -10 -16 -10 -5 0 -9 5 -9
10 0 6 7 10 16 10 8 0 12 -4 9 -10z m380 -40 c29 0 72 -50 89 -105 16 -48 20
-54 36 -45 10 6 36 10 58 10 34 0 45 -6 76 -40 20 -22 37 -43 37 -48 21 -109
-33 -180 -131 -170 -25 2 -51 6 -59 9 -10 3 -32 -29 -69 -101 -29 -58 -91
-171 -138 -252 -46 -80 -84 -150 -84 -155 0 -4 91 -3 202 2 l202 10 7 35 c10
49 68 100 114 100 68 0 125 -64 125 -140 0 -34 -6 -47 -31 -71 l-31 -29 35
-39 c39 -43 54 -90 38 -119 -6 -11 -27 -34 -47 -52 -31 -27 -43 -31 -72 -26
-41 6 -78 38 -98 84 l-13 33 -88 -6 c-48 -3 -121 -8 -160 -11 -40 -2 -73 -1
-72 3 0 4 13 18 29 31 26 21 40 23 174 25 97 1 148 -2 156 -9 6 -6 17 -29 25
-50 11 -34 17 -39 48 -42 28 -2 39 2 56 24 23 29 20 41 -29 104 -43 56 -43 57
-5 94 19 19 35 42 35 51 0 20 -29 77 -44 87 -37 25 -96 -18 -96 -68 0 -13 -8
-32 -18 -42 -17 -17 -44 -20 -215 -26 -185 -7 -198 -6 -236 13 -49 26 -57 38
-38 59 8 9 27 42 42 72 15 30 42 80 60 110 18 30 67 120 109 200 41 80 81 149
90 154 9 6 28 5 53 -3 53 -17 92 -11 114 19 16 21 17 31 9 61 -5 19 -21 46
-35 59 l-25 23 -44 -24 c-44 -23 -45 -23 -65 -5 -11 10 -24 35 -27 55 -10 53
-37 96 -64 99 -52 8 -99 -49 -86 -104 4 -15 20 -43 37 -63 16 -20 29 -44 29
-53 0 -27 -93 -208 -123 -240 -43 -46 -56 -36 -82 62 -68 251 -296 403 -538
360 -170 -30 -314 -164 -372 -347 -25 -79 -27 -95 -22 -190 5 -95 4 -103 -12
-103 -24 0 -31 36 -31 162 0 115 24 190 93 292 140 208 360 283 596 206 157
-52 301 -204 327 -346 3 -21 9 -43 12 -48 3 -5 26 36 52 90 47 97 47 99 29
119 -30 33 -59 109 -53 140 3 15 15 40 27 55 27 35 87 71 105 65 8 -3 20 -5
27 -5z m1625 -10 c0 -5 -4 -10 -10 -10 -5 0 -10 5 -10 10 0 6 5 10 10 10 6 0
10 -4 10 -10z m-808 -42 c13 -18 30 -46 38 -63 8 -16 20 -37 28 -46 7 -9 21
-33 32 -54 17 -34 18 -39 3 -61 -8 -13 -32 -28 -54 -34 -21 -6 -55 -26 -75
-45 -20 -19 -47 -35 -60 -35 -24 0 -53 34 -80 92 -8 18 -23 47 -34 63 -22 34
-40 72 -40 85 0 14 43 40 67 40 13 0 42 19 69 45 25 25 54 45 64 45 11 0 30
-15 42 -32z m636 -9 c-2 -6 -8 -10 -13 -10 -5 0 -11 4 -13 10 -2 6 4 11 13 11
9 0 15 -5 13 -11z m-238 -3 c0 -3 -4 -8 -10 -11 -5 -3 -10 -1 -10 4 0 6 5 11
10 11 6 0 10 -2 10 -4z m-3739 -99 c-15 -15 -24 -2 -16 24 7 20 8 21 17 5 7
-12 7 -21 -1 -29z m3859 -12 c0 -8 -7 -15 -15 -15 -8 0 -15 7 -15 15 0 8 7 15
15 15 8 0 15 -7 15 -15z m118 -3 c2 -7 -3 -12 -12 -12 -9 0 -16 7 -16 16 0 17
22 14 28 -4z m122 -2 c0 -5 -7 -10 -16 -10 -8 0 -12 5 -9 10 3 6 10 10 16 10
5 0 9 -4 9 -10z m-360 -10 c0 -5 -4 -10 -10 -10 -5 0 -10 5 -10 10 0 6 5 10
10 10 6 0 10 -4 10 -10z m-3035 -26 c75 -35 100 -90 79 -173 -25 -97 -62 -161
-93 -161 -9 0 -38 16 -65 35 -31 22 -61 35 -81 35 -38 0 -75 25 -75 51 0 11
14 50 30 87 58 126 122 166 205 126z m1267 -31 c35 -27 48 -57 48 -111 0 -32
-73 -102 -107 -102 -62 0 -123 63 -123 125 0 30 8 45 39 76 49 49 91 52 143
12z m2058 17 c0 -5 -4 -10 -10 -10 -5 0 -10 5 -10 10 0 6 5 10 10 10 6 0 10
-4 10 -10z m-225 -10 c-3 -5 -13 -10 -21 -10 -8 0 -14 5 -14 10 0 6 9 10 21
10 11 0 17 -4 14 -10z m375 -15 c0 -8 -7 -15 -15 -15 -8 0 -15 7 -15 15 0 8 7
15 15 15 8 0 15 -7 15 -15z m-4210 -10 c0 -8 -7 -15 -15 -15 -8 0 -15 7 -15
15 0 8 7 15 15 15 8 0 15 -7 15 -15z m4000 -20 c0 -8 -4 -15 -10 -15 -5 0 -10
7 -10 15 0 8 5 15 10 15 6 0 10 -7 10 -15z m-110 -5 c0 -5 -4 -10 -10 -10 -5
0 -10 5 -10 10 0 6 5 10 10 10 6 0 10 -4 10 -10z m170 -50 c0 -5 -7 -10 -16
-10 -8 0 -12 5 -9 10 3 6 10 10 16 10 5 0 9 -4 9 -10z m-225 -9 c3 -5 1 -12
-4 -15 -12 -8 -41 3 -41 15 0 12 37 12 45 0z m-308 -38 c11 -10 28 -42 38 -72
l18 -54 -23 -19 c-13 -11 -38 -18 -64 -18 -32 0 -50 -7 -76 -30 -63 -54 -99
-34 -122 68 -11 50 -10 56 7 68 10 8 35 14 56 14 22 0 50 9 71 24 33 22 55 33
69 35 4 1 15 -7 26 -16z m-2269 -15 c-7 -19 -38 -22 -38 -4 0 10 9 16 21 16
12 0 19 -5 17 -12z m952 -8 c0 -12 10 -50 21 -86 29 -89 23 -169 -17 -248 -34
-66 -59 -90 -73 -67 -6 9 2 36 21 77 22 47 30 80 31 126 2 74 -19 145 -45 153
-23 8 -24 41 0 54 30 18 62 13 62 -9z m1680 7 c0 -8 -3 -17 -7 -20 -9 -9 -34
13 -27 24 8 14 34 11 34 -4z m126 2 c3 -6 1 -16 -4 -21 -13 -13 -45 8 -36 23
7 12 31 11 40 -2z m-2328 -23 c49 -25 66 -53 66 -105 0 -39 -6 -56 -30 -84
-25 -30 -35 -36 -73 -36 -37 -1 -48 4 -76 34 -19 19 -36 48 -40 65 -9 43 21
101 65 122 42 22 53 22 88 4z m2252 -36 c0 -5 -5 -10 -11 -10 -5 0 -7 5 -4 10
3 6 8 10 11 10 2 0 4 -4 4 -10z m-44 -41 c10 -16 -18 -40 -35 -29 -12 7 -12
11 -2 24 16 19 27 20 37 5z m114 -15 c0 -17 -26 -19 -36 -3 -7 12 15 31 28 23
4 -3 8 -12 8 -20z m115 16 c3 -5 -3 -10 -14 -10 -12 0 -21 5 -21 10 0 6 6 10
14 10 8 0 18 -4 21 -10z m-1307 -34 c3 -13 -1 -17 -14 -14 -11 2 -20 11 -22
22 -3 13 1 17 14 14 11 -2 20 -11 22 -22z m102 14 c0 -5 -4 -10 -9 -10 -6 0
-13 5 -16 10 -3 6 1 10 9 10 9 0 16 -4 16 -10z m-220 -30 c0 -5 -4 -10 -9 -10
-6 0 -13 5 -16 10 -3 6 1 10 9 10 9 0 16 -4 16 -10z m1363 -15 c1 -5 -6 -11
-15 -13 -11 -2 -18 3 -18 13 0 17 30 18 33 0z m124 -11 c-9 -9 -28 6 -21 18 4
6 10 6 17 -1 6 -6 8 -13 4 -17z m-1207 1 c0 -8 -7 -15 -15 -15 -16 0 -20 12
-8 23 11 12 23 8 23 -8z m970 0 c0 -8 -9 -15 -20 -15 -20 0 -26 11 -13 23 12
13 33 7 33 -8z m-5090 -15 c0 -5 -7 -7 -15 -4 -8 4 -15 8 -15 10 0 2 7 4 15 4
8 0 15 -4 15 -10z m888 -11 c-2 -12 -11 -27 -20 -33 -14 -8 -22 -6 -39 11 -27
27 -17 43 27 43 31 0 35 -3 32 -21z m3008 10 c10 -17 -13 -36 -27 -22 -12 12
-4 33 11 33 5 0 12 -5 16 -11z m-2646 -14 c0 -8 -4 -15 -10 -15 -5 0 -10 7
-10 15 0 8 5 15 10 15 6 0 10 -7 10 -15z m3897 -39 c-4 -9 -13 -13 -22 -10
-18 7 -20 31 -2 37 17 6 31 -9 24 -27z m-126 11 c-1 -12 -15 -9 -19 4 -3 6 1
10 8 8 6 -3 11 -8 11 -12z m-4951 -7 c0 -5 -4 -10 -10 -10 -5 0 -10 5 -10 10
0 6 5 10 10 10 6 0 10 -4 10 -10z m3880 -5 c0 -8 -4 -15 -10 -15 -5 0 -10 7
-10 15 0 8 5 15 10 15 6 0 10 -7 10 -15z m-110 -11 c0 -9 -5 -14 -12 -12 -18
6 -21 28 -4 28 9 0 16 -7 16 -16z m1250 -40 c0 -8 -9 -14 -20 -14 -22 0 -26
10 -8 28 13 13 28 7 28 -14z m238 -2 c2 -7 -3 -12 -12 -12 -9 0 -16 7 -16 16
0 17 22 14 28 -4z m-128 -2 c0 -5 -7 -10 -15 -10 -8 0 -15 5 -15 10 0 6 7 10
15 10 8 0 15 -4 15 -10z m-520 -15 c0 -8 -9 -15 -20 -15 -20 0 -26 11 -13 23
12 13 33 7 33 -8z m-130 -15 c0 -13 -7 -20 -20 -20 -13 0 -20 7 -20 20 0 13 7
20 20 20 13 0 20 -7 20 -20z m828 -32 c-7 -19 -38 -22 -38 -4 0 10 9 16 21 16
12 0 19 -5 17 -12z m-4128 -27 c0 -6 -4 -13 -10 -16 -5 -3 -10 1 -10 9 0 9 5
16 10 16 6 0 10 -4 10 -9z m3948 -29 c2 -7 -3 -12 -12 -12 -9 0 -16 7 -16 16
0 17 22 14 28 -4z m-113 -2 c3 -5 -3 -10 -14 -10 -12 0 -21 5 -21 10 0 6 6 10
14 10 8 0 18 -4 21 -10z m65 -51 c0 -5 -9 -9 -20 -9 -22 0 -27 16 -7 23 15 5
27 -1 27 -14z m-3942 -21 c3 -13 -3 -18 -22 -18 -20 0 -26 5 -26 21 0 15 5 20
22 17 13 -2 24 -11 26 -20z m3807 12 c3 -5 1 -10 -4 -10 -6 0 -11 5 -11 10 0
6 2 10 4 10 3 0 8 -4 11 -10z m73 -73 c2 -12 -3 -17 -17 -17 -12 0 -21 6 -21
13 0 31 32 34 38 4z m167 14 c7 -12 -12 -24 -25 -16 -11 7 -4 25 10 25 5 0 11
-4 15 -9z m-72 -66 c8 -18 -11 -31 -25 -17 -11 11 -3 32 12 32 4 0 10 -7 13
-15z m-40 -50 c4 -8 2 -17 -4 -21 -15 -9 -39 3 -39 21 0 19 36 20 43 0z m105
-2 c2 -8 -5 -13 -17 -13 -12 0 -21 6 -21 16 0 18 31 15 38 -3z m125 -8 c1 -5
-6 -11 -15 -13 -11 -2 -18 3 -18 13 0 17 30 18 33 0z m-292 -48 c-1 -12 -15
-9 -19 4 -3 6 1 10 8 8 6 -3 11 -8 11 -12z m224 2 c10 -15 -1 -23 -20 -15 -9
3 -13 10 -10 16 8 13 22 13 30 -1z m-57 -62 c2 -12 -3 -17 -17 -17 -15 0 -21
6 -21 21 0 25 33 22 38 -4z m122 8 c0 -8 -7 -15 -15 -15 -8 0 -15 7 -15 15 0
8 7 15 15 15 8 0 15 -7 15 -15z m-234 -6 c8 -14 -18 -31 -30 -19 -9 9 0 30 14
30 5 0 12 -5 16 -11z m-1218 -80 c15 -24 7 -59 -14 -59 -14 0 -34 38 -34 66 0
21 33 17 48 -7z m1270 4 c2 -8 -5 -13 -17 -13 -12 0 -21 6 -21 16 0 18 31 15
38 -3z m112 7 c0 -5 -7 -10 -15 -10 -8 0 -15 5 -15 10 0 6 7 10 15 10 8 0 15
-4 15 -10z m84 -5 c-4 -8 -10 -15 -15 -15 -5 0 -9 7 -9 15 0 8 7 15 15 15 9 0
12 -6 9 -15z m-2288 -16 c3 -6 26 -19 51 -30 37 -16 44 -22 37 -37 -5 -9 -7
-36 -7 -60 2 -37 -1 -44 -22 -54 -28 -12 -33 -28 -10 -28 9 0 15 -10 15 -26 0
-26 53 -84 77 -84 7 0 13 -3 13 -8 0 -9 -170 -48 -245 -57 -36 -4 -57 -13 -80
-34 -16 -16 -47 -33 -67 -36 -35 -7 -75 -35 -49 -35 6 0 11 -4 11 -10 0 -11
-42 -13 -77 -4 -26 7 -31 24 -8 24 8 0 15 7 15 15 0 8 -8 15 -18 15 -10 0 -22
4 -27 9 -34 32 -96 53 -179 62 -50 5 -107 11 -126 14 -45 7 -143 -48 -148 -83
-4 -23 -30 -45 -71 -57 -23 -7 -23 -7 -16 56 7 63 36 160 59 203 50 89 60 98
83 75 8 -8 21 -8 49 1 28 10 39 10 42 2 6 -20 69 -44 99 -39 17 3 40 11 54 18
36 21 73 49 63 49 -10 0 197 102 242 119 18 7 72 16 120 20 49 5 94 9 101 10
6 0 15 -4 19 -10z m1952 -1 c-6 -18 -28 -21 -28 -4 0 9 7 16 16 16 9 0 14 -5
12 -12z m72 -59 c0 -15 -30 -23 -42 -11 -6 6 -7 15 -4 20 7 12 46 4 46 -9z
m190 7 c0 -11 -19 -15 -25 -6 -3 5 1 10 9 10 9 0 16 -2 16 -4z m-750 -37 c0
-5 -7 -9 -15 -9 -15 0 -20 12 -9 23 8 8 24 -1 24 -14z m-545 -109 c0 -8 -8
-16 -17 -18 -13 -2 -18 3 -18 18 0 15 5 20 18 18 9 -2 17 -10 17 -18z m1365
-60 c0 -11 -7 -20 -15 -20 -8 0 -15 9 -15 20 0 11 7 20 15 20 8 0 15 -9 15
-20z m-45 -55 c0 -11 8 -23 18 -27 25 -11 19 -53 -8 -53 -12 0 -21 8 -23 19
-2 11 -13 27 -24 35 -13 11 -17 22 -12 34 9 25 49 18 49 -8z m55 10 c9 -11 10
-19 2 -27 -14 -14 -32 -1 -32 23 0 23 13 25 30 4z m-3433 -86 c-3 -48 0 -64
15 -82 18 -20 18 -22 2 -34 -10 -7 -23 -13 -28 -13 -17 -1 -48 -48 -36 -55 15
-10 12 -35 -5 -35 -16 0 -84 87 -85 108 0 20 26 14 43 -10 12 -19 18 -21 34
-12 10 7 17 18 15 26 -1 9 5 21 13 28 14 12 14 15 -1 31 -10 11 -23 19 -29 19
-7 0 -16 7 -19 16 -12 31 -6 44 19 44 16 0 25 6 25 15 0 8 9 15 20 15 19 0 20
-5 17 -61z m3334 16 c-1 -15 -24 -12 -29 3 -3 9 2 13 12 10 10 -1 17 -7 17
-13z m-859 -10 c0 -5 -5 -11 -11 -13 -6 -2 -11 4 -11 13 0 9 5 15 11 13 6 -2
11 -8 11 -13z m128 -6 c0 -11 -4 -17 -10 -14 -5 3 -10 13 -10 21 0 8 5 14 10
14 6 0 10 -9 10 -21z m360 -24 c0 -24 -24 -44 -37 -31 -9 8 14 56 27 56 5 0
10 -11 10 -25z m-2381 -41 c2 -2 -49 -4 -115 -3 -74 1 -109 4 -94 9 23 7 200
2 209 -6z m2416 -34 c0 -29 -32 -41 -41 -16 -9 24 4 48 23 44 12 -2 18 -12 18
-28z m-524 -13 c-13 -13 -26 -3 -16 12 3 6 11 8 17 5 6 -4 6 -10 -1 -17z
m-1901 3 l25 -8 -27 -1 c-15 -1 -31 -7 -35 -15 -8 -14 -25 -20 -53 -17 -13 1
-13 2 0 11 12 8 10 10 -11 10 -45 0 -119 -65 -119 -105 0 -25 3 -27 28 -21 15
4 35 7 45 7 9 0 25 0 35 0 9 0 41 0 70 0 48 0 52 2 52 24 0 12 7 25 15 28 19
8 31 -13 14 -24 -12 -8 -11 -12 4 -23 10 -8 15 -20 11 -30 -9 -22 -1 -20 30 9
23 21 31 23 48 14 18 -10 20 -9 15 6 -4 9 -7 21 -7 26 0 6 -4 7 -10 4 -5 -3
-10 1 -10 10 0 11 5 15 15 12 23 -10 28 11 5 25 -20 13 -27 28 -11 28 4 0 20
-11 35 -25 32 -30 33 -63 7 -164 -33 -124 -75 -151 -252 -159 -100 -4 -122 -2
-161 15 -67 30 -78 61 -92 258 -4 60 6 71 82 96 60 19 205 24 252 9z m796 -6
c27 -9 56 -23 65 -30 8 -8 29 -15 45 -15 26 -2 27 -2 4 -6 -25 -4 -25 -5 -26
-111 -1 -170 -27 -200 -188 -209 -100 -6 -205 14 -239 45 -26 24 -49 70 -44
90 3 12 9 5 21 -22 21 -47 28 -42 30 21 l1 48 43 3 c37 3 42 6 42 28 0 21 4
24 40 24 28 0 40 4 40 14 0 8 -6 17 -12 19 -7 3 5 5 27 6 34 0 37 -2 17 -10
-31 -12 -18 -31 18 -27 16 1 37 -5 47 -14 13 -11 24 -13 41 -7 25 10 29 31 7
49 -8 7 -15 21 -15 31 0 11 -6 19 -13 19 -7 0 -18 5 -25 12 -33 33 -191 50
-214 22 -59 -70 -88 -90 -88 -59 0 12 -7 14 -26 9 -22 -6 -25 -4 -22 12 4 23
62 53 126 64 87 14 245 11 298 -6z m-1226 -49 c0 -32 -2 -35 -30 -35 -52 0
-49 53 3 63 12 2 23 5 25 6 1 0 2 -15 2 -34z m320 11 c0 -2 -7 -9 -15 -16 -12
-10 -15 -10 -15 4 0 9 7 16 15 16 8 0 15 -2 15 -4z m-245 -16 c-3 -5 -13 -10
-21 -10 -8 0 -14 5 -14 10 0 6 9 10 21 10 11 0 17 -4 14 -10z m2195 -10 c0 -5
-5 -10 -11 -10 -5 0 -7 5 -4 10 3 6 8 10 11 10 2 0 4 -4 4 -10z m-1290 -31 c0
-5 -7 -9 -15 -9 -15 0 -20 12 -9 23 8 8 24 -1 24 -14z m-658 -4 c0 -5 -5 -11
-11 -13 -6 -2 -11 4 -11 13 0 9 5 15 11 13 6 -2 11 -8 11 -13z m421 -34 c14
-17 30 -54 37 -83 7 -29 20 -69 28 -88 9 -19 15 -38 14 -42 -1 -4 11 -14 26
-22 32 -16 57 -58 49 -79 -4 -11 -18 -13 -55 -9 -46 4 -52 2 -86 -31 -24 -23
-42 -33 -55 -30 -10 3 -22 0 -25 -6 -4 -6 -16 -11 -27 -11 -22 0 -103 -42
-134 -70 -11 -9 -32 -20 -48 -22 -22 -4 -28 -1 -33 18 -3 13 -9 24 -12 24 -3
0 -23 -17 -44 -37 -29 -28 -38 -45 -38 -70 0 -17 -5 -44 -12 -59 -11 -22 -10
-28 6 -40 19 -14 16 -44 -5 -44 -7 0 -10 3 -6 6 3 3 -5 18 -18 32 -54 62 -65
76 -65 85 0 9 -13 24 -87 100 -18 18 -33 43 -33 55 0 12 -8 26 -18 31 -33 18
-76 294 -54 351 9 23 10 20 21 -31 17 -81 50 -140 91 -164 30 -17 53 -20 155
-20 66 0 135 3 153 7 25 6 32 4 32 -8 0 -12 6 -11 28 8 45 36 77 87 101 160
24 71 54 118 76 118 7 0 24 -13 38 -29z m2143 9 c8 0 14 -6 14 -14 0 -8 7 -16
15 -20 8 -3 15 -17 15 -31 0 -14 6 -28 14 -31 25 -9 28 -36 6 -51 -11 -8 -20
-25 -20 -38 0 -35 -17 -39 -36 -10 -13 20 -14 28 -4 40 10 12 9 15 -4 15 -25
0 -32 31 -11 46 16 12 17 17 6 40 -8 18 -16 24 -28 20 -9 -4 -20 -1 -24 6 -10
16 10 40 28 33 8 -3 21 -5 29 -5z m-686 -20 c0 -5 -4 -10 -10 -10 -5 0 -10 5
-10 10 0 6 5 10 10 10 6 0 10 -4 10 -10z m-606 -37 c-8 -33 -23 -63 -24 -47 0
27 13 74 21 74 5 0 6 -12 3 -27z m1420 12 c4 -10 -1 -15 -16 -15 -17 0 -18 2
-8 15 7 8 14 15 15 15 2 0 5 -7 9 -15z m-291 -82 c14 -8 7 -43 -13 -53 -15 -8
-23 -6 -37 9 -20 22 -63 24 -63 4 0 -7 7 -13 15 -13 8 0 19 -9 25 -20 16 -29
-11 -37 -55 -16 -30 15 -34 20 -25 37 6 10 15 19 21 19 5 0 14 12 19 26 9 24
13 25 57 18 27 -3 51 -8 56 -11z m-672 -93 c24 0 59 -30 59 -51 0 -19 -41 -61
-107 -108 l-33 -24 -25 23 c-17 16 -24 32 -22 54 2 25 -3 33 -28 45 -69 34
-70 63 -2 120 l52 43 46 -51 c25 -28 52 -51 60 -51z m1119 40 c0 -13 -7 -20
-19 -20 -22 0 -35 15 -26 30 12 19 45 11 45 -10z m60 -1 c0 -5 -7 -9 -15 -9
-15 0 -20 12 -9 23 8 8 24 -1 24 -14z m-1899 -36 c-14 -26 -24 -57 -23 -65 1
-5 -4 -8 -10 -8 -13 0 -48 -73 -48 -98 0 -6 -4 -12 -9 -12 -5 0 -12 -15 -15
-34 -6 -33 -21 -50 -62 -73 -16 -9 -24 -9 -33 0 -8 8 -11 7 -11 -4 0 -8 5 -20
12 -27 10 -10 9 -16 -4 -28 -15 -15 -18 -13 -36 23 -26 49 -43 63 -79 66 -15
1 -32 7 -36 12 -6 6 -10 6 -14 -2 -8 -22 -31 -14 -52 16 -22 30 -28 71 -11 71
5 0 13 18 16 40 4 26 12 40 22 40 12 0 12 4 -4 21 l-19 21 60 -6 c164 -18 269
-8 310 30 14 13 30 24 36 24 5 0 9 5 9 12 0 6 3 9 6 6 3 -3 1 -14 -5 -25z
m2009 -13 c9 -6 14 -21 12 -40 -3 -22 1 -30 12 -30 8 0 18 5 21 10 3 6 14 10
25 10 13 0 17 5 13 19 -5 20 27 38 47 26 18 -11 11 -47 -10 -52 -11 -3 -20
-11 -20 -19 0 -18 38 -37 63 -30 34 9 57 -11 57 -48 0 -38 -20 -52 -51 -36
-13 8 -25 7 -41 -1 l-22 -12 24 -9 c19 -7 22 -11 10 -18 -9 -5 1 -7 27 -3 36
5 41 3 47 -18 5 -13 7 -37 6 -52 -1 -16 4 -42 10 -58 10 -22 19 -29 41 -29 15
0 31 -5 35 -11 5 -8 8 -8 14 0 10 17 90 3 90 -15 0 -8 9 -14 20 -14 13 0 20 7
20 20 0 13 7 20 20 20 27 0 36 -25 20 -55 -8 -14 -9 -31 -5 -42 7 -14 10 -11
14 17 5 27 11 36 29 38 12 2 27 12 32 23 15 27 80 27 87 -1 3 -13 14 -20 29
-20 17 0 24 6 24 20 0 17 7 20 40 20 27 0 40 -4 40 -14 0 -7 9 -16 20 -19 15
-4 20 0 20 13 0 18 19 30 47 30 11 0 14 -7 11 -24 -4 -20 0 -25 22 -30 31 -6
42 -33 30 -74 -6 -23 -9 -24 -15 -9 -10 23 -29 22 -22 -3 4 -16 -2 -20 -39
-26 -24 -3 -100 -4 -169 -1 -97 3 -130 8 -144 21 -22 20 -31 20 -31 1 0 -15
-17 -20 -55 -16 -34 3 -49 -7 -35 -24 18 -21 5 -30 -43 -31 -23 -1 -52 -4 -65
-9 -19 -6 -25 -3 -35 24 -14 38 -40 43 -31 5 6 -24 5 -25 -32 -22 -34 3 -39 6
-36 26 2 16 -2 22 -16 22 -11 0 -25 7 -32 15 -15 19 -36 19 -47 2 -15 -24 -42
-28 -53 -6 -14 25 -5 39 26 39 34 0 29 32 -6 40 -14 3 -25 12 -25 20 0 8 -10
16 -22 18 -19 3 -23 10 -23 38 0 27 4 34 20 34 15 0 20 -7 20 -26 0 -22 4 -25
27 -22 35 4 40 24 8 32 -37 9 -31 50 8 54 30 4 31 5 17 33 -8 14 -7 27 4 48
14 26 14 30 1 41 -12 10 -15 9 -15 -9 0 -26 -47 -41 -61 -20 -13 21 -11 27 11
39 11 6 20 14 20 19 0 4 -21 31 -46 59 -35 39 -54 52 -74 52 -28 0 -42 21 -33
48 5 14 91 16 113 2z m-763 -26 c6 -16 -15 -37 -29 -28 -4 3 -8 14 -8 25 0 23
28 26 37 3z m586 -21 c9 -9 -13 -34 -24 -27 -14 8 -11 34 4 34 8 0 17 -3 20
-7z m62 -63 c0 -22 -29 -18 -33 3 -3 14 1 18 15 15 10 -2 18 -10 18 -18z
m-1515 -43 c14 -26 40 -59 58 -73 50 -39 43 -58 -38 -99 -38 -19 -79 -35 -90
-35 -30 0 -47 43 -30 75 12 22 10 27 -23 64 -44 48 -40 76 14 104 54 28 80 19
109 -36z m-2160 28 c0 -8 -4 -15 -10 -15 -5 0 -10 7 -10 15 0 8 5 15 10 15 6
0 10 -7 10 -15z m3164 -20 c2 -7 -2 -21 -10 -32 -14 -17 -14 -17 -29 1 -10 13
-11 24 -4 37 10 19 34 16 43 -6z m446 -5 c0 -13 -7 -20 -20 -20 -13 0 -20 7
-20 20 0 13 7 20 20 20 13 0 20 -7 20 -20z m-530 -5 c0 -9 7 -18 15 -21 23 -9
18 -34 -6 -34 -24 0 -48 26 -49 53 0 10 7 17 20 17 11 0 20 -7 20 -15z m-69
-22 c7 -20 6 -28 -3 -35 -32 -20 -54 -2 -44 38 8 32 34 31 47 -3z m-1031 -49
c0 -60 -65 -121 -107 -101 -23 10 -27 25 -17 64 6 21 7 21 40 6 32 -16 34 -16
52 8 11 13 17 29 15 36 -3 7 0 13 6 13 6 0 11 -12 11 -26z m1172 -9 c-6 -42
-11 -48 -27 -35 -16 13 -20 42 -8 54 14 13 38 0 35 -19z m-145 -6 c18 -18 3
-50 -21 -47 -24 3 -34 37 -14 49 17 11 22 11 35 -2z m71 -8 c19 -11 11 -45
-11 -49 -19 -4 -32 20 -23 43 6 17 15 19 34 6z m450 -27 c2 -13 -4 -24 -14
-28 -23 -9 -37 7 -29 34 8 27 39 23 43 -6z m-2266 -32 c11 -11 -93 -25 -127
-16 -29 7 -33 20 -7 28 25 7 123 -1 134 -12z m1858 -7 c0 -8 -4 -15 -10 -15
-5 0 -10 7 -10 15 0 8 5 15 10 15 6 0 10 -7 10 -15z m-115 -45 c0 -16 -6 -26
-17 -28 -14 -3 -18 3 -18 28 0 25 4 31 18 28 11 -2 17 -12 17 -28z m78 10 c7
-26 -21 -50 -34 -29 -10 17 -11 33 -2 42 13 13 31 7 36 -13z m-1211 -7 c38
-34 13 -92 -39 -93 -32 0 -29 28 3 41 25 9 26 11 10 28 -32 36 -10 57 26 24z
m1284 -22 c-10 -16 -23 -14 -30 5 -9 25 4 38 21 21 9 -8 12 -20 9 -26z m-1940
19 c71 0 71 0 66 -25 -2 -15 0 -25 7 -25 6 0 11 -9 11 -20 0 -14 -11 -26 -32
-35 -24 -10 -27 -14 -13 -15 11 0 32 7 48 14 25 14 27 13 27 -4 0 -10 -10 -27
-23 -37 -13 -10 -26 -25 -29 -35 -11 -29 -238 -37 -238 -9 0 4 -17 13 -38 19
-21 6 -48 21 -60 32 -12 11 -22 17 -22 12 0 -5 7 -15 15 -22 8 -6 17 -21 21
-33 9 -29 73 -86 104 -93 14 -3 39 -12 55 -20 l30 -14 -33 3 c-28 3 -31 1 -26
-16 5 -17 3 -19 -17 -12 -21 7 -44 10 -101 14 -11 1 -18 9 -18 20 0 11 -8 27
-17 37 -20 20 -32 39 -63 103 -20 41 -21 46 -6 56 9 7 16 20 16 29 0 9 6 16
14 16 17 0 80 -29 126 -58 20 -12 50 -22 70 -21 l35 0 -45 18 c-25 10 -46 26
-48 35 -2 9 -13 16 -27 16 -25 0 -45 35 -28 50 14 14 96 29 133 24 19 -2 67
-4 106 -4z m124 -15 c0 -8 -4 -15 -9 -15 -5 0 -14 7 -21 15 -10 13 -9 15 9 15
12 0 21 -6 21 -15z m1684 -21 c23 -9 20 -34 -4 -34 -13 0 -20 7 -20 20 0 22 1
23 24 14z m96 -13 c0 -11 -5 -23 -11 -27 -15 -9 -33 12 -26 30 9 23 37 20 37
-3z m-40 -45 c0 -19 27 -28 49 -17 22 12 44 -1 39 -25 -5 -28 -74 -32 -99 -6
-10 11 -23 22 -29 24 -6 2 -8 11 -5 21 8 20 45 23 45 3z m-1600 -21 c0 -15
-15 -35 -26 -35 -8 0 -14 -7 -14 -15 0 -8 5 -15 12 -15 17 0 -23 -41 -51 -51
-17 -7 -20 -13 -13 -22 7 -9 2 -20 -19 -41 -23 -23 -31 -26 -43 -17 -11 9 -17
8 -30 -5 -12 -11 -20 -13 -29 -6 -7 6 -28 12 -47 14 l-35 4 39 8 c22 5 55 20
74 33 21 14 43 21 54 17 13 -4 21 2 30 23 6 15 10 34 9 41 -1 8 9 29 23 47 19
24 31 32 46 28 11 -3 20 -7 20 -8z m2197 -36 c21 -21 3 -39 -38 -39 -35 0 -39
3 -39 25 0 22 4 25 33 25 18 0 38 -5 44 -11z m-847 -14 c0 -8 -6 -15 -14 -15
-17 0 -28 14 -19 24 12 12 33 6 33 -9z m1090 -35 c20 -13 2 -44 -29 -48 -26
-4 -38 22 -21 43 14 17 29 19 50 5z m-925 -40 c0 -23 -3 -25 -40 -22 -45 4
-60 14 -52 35 3 9 20 14 49 13 39 -1 43 -3 43 -26z m983 -37 c2 -17 -2 -23
-15 -24 -60 -2 -115 0 -120 4 -12 12 11 29 33 24 13 -2 32 2 41 9 26 20 57 13
61 -13z m-1353 -4 c0 -9 -13 -15 -37 -17 -28 -2 -38 1 -38 12 0 8 12 16 28 19
37 5 47 3 47 -14z m1445 17 c0 -11 -19 -15 -25 -6 -3 5 1 10 9 10 9 0 16 -2
16 -4z m-1222 -91 c4 -20 -15 -36 -35 -28 -16 6 -17 25 -1 41 16 16 32 10 36
-13z m552 -25 c0 -5 -7 -10 -15 -10 -8 0 -15 5 -15 10 0 6 7 10 15 10 8 0 15
-4 15 -10z m-394 -21 c10 -17 -13 -36 -27 -22 -12 12 -4 33 11 33 5 0 12 -5
16 -11z m-616 -29 c0 -5 -2 -10 -4 -10 -3 0 -8 5 -11 10 -3 6 -1 10 4 10 6 0
11 -4 11 -10z m2320 0 c0 -5 -4 -10 -10 -10 -5 0 -10 5 -10 10 0 6 5 10 10 10
6 0 10 -4 10 -10z m-2765 -10 c-3 -5 -17 -10 -31 -10 -13 0 -24 5 -24 10 0 6
14 10 31 10 17 0 28 -4 24 -10z m-70 -30 c-7 -24 -28 -22 -33 2 -2 9 5 18 15
20 24 6 26 3 18 -22z m2353 6 c5 -25 -12 -39 -37 -31 -20 6 -28 34 -14 49 13
13 48 1 51 -18z m-2410 -29 c2 -19 -1 -27 -12 -27 -18 0 -35 29 -29 48 9 23
38 8 41 -21z m2497 -32 c0 -16 -7 -20 -30 -20 -24 0 -31 5 -33 23 -3 21 0 23
30 20 25 -2 33 -8 33 -23z m-90 -10 c0 -12 -10 -23 -28 -30 -24 -8 -31 -6 -43
9 -19 27 0 48 40 44 23 -2 31 -8 31 -23z m-1425 -9 c0 -3 -4 -8 -10 -11 -5 -3
-10 -1 -10 4 0 6 5 11 10 11 6 0 10 -2 10 -4z m80 -16 c0 -5 -4 -10 -10 -10
-5 0 -10 5 -10 10 0 6 5 10 10 10 6 0 10 -4 10 -10z m340 -6 c0 -8 -4 -12 -10
-9 -5 3 -10 10 -10 16 0 5 5 9 10 9 6 0 10 -7 10 -16z m75 6 c-3 -5 -10 -10
-16 -10 -5 0 -9 5 -9 10 0 6 7 10 16 10 8 0 12 -4 9 -10z m-527 -61 c-2 -6 -8
-10 -13 -10 -5 0 -11 4 -13 10 -2 6 4 11 13 11 9 0 15 -5 13 -11z m662 -14 c0
-8 -4 -15 -10 -15 -5 0 -10 7 -10 15 0 8 5 15 10 15 6 0 10 -7 10 -15z m75 6
c3 -5 1 -12 -5 -16 -5 -3 -10 1 -10 9 0 18 6 21 15 7z m-285 -22 c0 -5 -7 -9
-15 -9 -15 0 -20 12 -9 23 8 8 24 -1 24 -14z m-325 1 c-3 -5 -10 -10 -16 -10
-5 0 -9 5 -9 10 0 6 7 10 16 10 8 0 12 -4 9 -10z m193 -2 c-3 -7 -11 -13 -18
-13 -7 0 -15 6 -17 13 -3 7 4 12 17 12 13 0 20 -5 18 -12z m-1145 -53 c7 -16
-8 -29 -23 -20 -15 9 -12 35 4 35 8 0 16 -7 19 -15z m1357 1 c0 -15 -24 -28
-34 -19 -13 14 -5 33 14 33 11 0 20 -6 20 -14z m130 4 c0 -5 -4 -10 -10 -10
-5 0 -10 5 -10 10 0 6 5 10 10 10 6 0 10 -4 10 -10z m70 0 c0 -5 -7 -10 -15
-10 -8 0 -15 5 -15 10 0 6 7 10 15 10 8 0 15 -4 15 -10z m70 0 c0 -5 -4 -10
-10 -10 -5 0 -10 5 -10 10 0 6 5 10 10 10 6 0 10 -4 10 -10z m-410 -10 c0 -5
-7 -10 -16 -10 -8 0 -12 5 -9 10 3 6 10 10 16 10 5 0 9 -4 9 -10z m-120 -10
c0 -5 -4 -10 -10 -10 -5 0 -10 5 -10 10 0 6 5 10 10 10 6 0 10 -4 10 -10z
m-910 -50 c0 -11 -6 -20 -14 -20 -18 0 -29 16 -21 30 11 18 35 11 35 -10z
m-626 -149 c9 -14 -24 -22 -45 -11 -10 6 -19 13 -19 15 0 9 59 5 64 -4z m-924
-57 c0 -8 -138 -272 -158 -302 -8 -12 -17 -21 -19 -19 -4 5 47 139 56 147 3 3
26 44 51 92 25 48 51 88 58 88 6 0 12 -3 12 -6z m339 -287 c5 -29 13 -83 16
-122 13 -136 53 -274 89 -304 9 -7 16 -23 16 -34 0 -11 8 -26 18 -33 15 -11
17 -33 20 -161 2 -147 -5 -258 -53 -843 -14 -168 -28 -369 -32 -448 -3 -78
-10 -145 -15 -148 -4 -3 -8 13 -8 35 0 24 -5 41 -11 41 -15 0 -6 217 27 640
13 173 26 349 29 390 10 133 15 160 31 160 8 0 14 5 14 10 0 6 -7 10 -15 10
-12 0 -15 10 -13 41 1 29 -3 45 -15 54 -20 14 -24 118 -7 205 6 30 7 56 2 59
-14 10 -60 124 -76 191 -8 36 -18 106 -22 155 -6 97 -20 155 -35 155 -6 0 -7
5 -4 10 13 20 34 -10 44 -63z m279 23 c-14 -22 -24 -19 -15 5 4 8 11 15 17 15
6 0 6 -7 -2 -20z m-27 -86 c-5 -16 -10 -21 -10 -12 -1 18 10 51 15 45 2 -1 -1
-16 -5 -33z m-14 -96 c-3 -7 -5 -2 -5 12 0 14 2 19 5 13 2 -7 2 -19 0 -25z
m2978 -8 c8 -13 -12 -40 -29 -40 -7 0 -21 6 -32 14 -18 14 -18 15 6 25 33 13
47 13 55 1z m75 -9 c0 -22 -21 -33 -40 -21 -18 11 -4 40 20 40 13 0 20 -7 20
-19z m-3064 -63 c-8 -63 -33 -152 -53 -191 -26 -51 -25 -21 0 50 14 38 31 97
37 131 15 76 25 82 16 10z m2878 6 c12 -5 13 -10 5 -25 -12 -24 -31 -24 -53 0
-13 15 -14 20 -4 24 19 8 34 8 52 1z m136 -15 c0 -27 -19 -34 -35 -13 -13 18
-14 18 -20 2 -10 -24 -41 -23 -48 2 -6 23 4 28 61 27 33 0 42 -4 42 -18z
m-3580 -2 c0 -14 -70 -50 -79 -41 -8 7 50 54 67 54 6 0 12 -6 12 -13z m3347
-2 c1 -5 -1 -17 -7 -25 -8 -12 -11 -12 -28 3 -10 9 -25 17 -33 18 -8 1 -3 5
11 9 31 10 52 8 57 -5z m-2154 -12 c32 -7 39 -14 28 -32 -7 -11 -14 -10 -34 4
-15 9 -31 14 -38 10 -13 -8 -31 14 -22 28 3 4 12 5 22 2 9 -4 28 -9 44 -12z
m2051 5 c-15 -7 -28 -7 -40 1 -16 9 -12 10 21 10 35 0 37 -2 19 -11z m-409
-16 c-3 -3 -11 0 -18 7 -9 10 -8 11 6 5 10 -3 15 -9 12 -12z m985 -2 c0 -5 -7
-7 -15 -4 -8 4 -15 8 -15 10 0 2 7 4 15 4 8 0 15 -4 15 -10z m-525 -20 c9 -15
-4 -50 -20 -50 -20 0 -30 40 -14 51 18 11 26 11 34 -1z m95 -15 c0 -18 -5 -25
-19 -25 -11 0 -23 5 -26 10 -11 18 3 40 25 40 15 0 20 -7 20 -25z m76 9 c-3
-9 -6 -20 -6 -25 0 -5 -9 -9 -20 -9 -15 0 -20 7 -20 25 0 20 5 25 26 25 20 0
25 -4 20 -16z m73 -2 c7 -13 6 -23 -1 -30 -17 -17 -48 -15 -48 2 0 44 31 61
49 28z m-3539 -12 c0 -14 -7 -20 -22 -20 -12 0 -30 -8 -41 -17 -18 -17 -19
-17 -16 1 2 11 18 27 34 37 39 23 45 23 45 -1z m1175 -14 c25 -11 33 -19 29
-30 -8 -20 -18 -20 -34 -1 -7 8 -25 15 -41 15 -19 0 -29 5 -29 15 0 19 31 19
75 1z m-2305 -5 c0 -5 -7 -14 -15 -21 -18 -15 -42 1 -31 19 8 13 46 15 46 2z
m4778 -8 c5 -17 -26 -29 -40 -15 -6 6 -7 15 -3 22 9 14 37 9 43 -7z m-313 -13
c3 -6 -4 -10 -17 -10 -18 0 -20 2 -8 10 19 12 18 12 25 0z m-3325 -26 c0 -20
-4 -24 -18 -20 -10 4 -27 -1 -38 -9 -24 -18 -34 -19 -34 -1 0 12 58 50 83 55
4 0 7 -11 7 -25z m3238 19 c-10 -2 -26 -2 -35 0 -10 3 -2 5 17 5 19 0 27 -2
18 -5z m-2100 -30 c22 -4 32 -11 32 -24 0 -26 -18 -33 -36 -15 -8 9 -26 16
-39 16 -13 0 -27 5 -30 10 -10 16 5 32 24 25 9 -4 31 -9 49 -12z m2062 -13 c0
-5 -8 -10 -17 -10 -15 0 -16 2 -3 10 19 12 20 12 20 0z m88 -28 c3 -27 0 -32
-17 -32 -22 0 -39 39 -26 60 14 22 40 5 43 -28z m87 9 c-6 -29 -6 -29 37 -25
l43 3 -50 -12 c-51 -14 -95 -11 -95 4 0 5 5 9 11 9 5 0 9 8 8 18 -3 29 0 32
27 32 23 0 25 -3 19 -29z m315 4 c0 -18 -5 -25 -20 -25 -11 0 -20 4 -20 9 0 5
-3 16 -6 25 -5 12 0 16 20 16 21 0 26 -5 26 -25z m-765 -6 c-7 -10 -35 -1 -35
11 0 5 9 6 20 3 11 -3 17 -9 15 -14z m175 11 c0 -6 -33 -9 -82 -8 l-83 2 70 6
c39 4 76 7 83 8 6 1 12 -2 12 -8z m60 0 c0 -5 -12 -10 -26 -10 -14 0 -23 4
-19 10 3 6 15 10 26 10 10 0 19 -4 19 -10z m364 -6 c10 -25 7 -30 -19 -42 -27
-13 -28 -12 -38 36 -4 19 -1 22 23 22 16 0 30 -7 34 -16z m66 -7 l28 -24 -39
-1 c-32 -2 -39 2 -39 16 0 18 8 32 18 32 2 0 17 -11 32 -23z m164 4 c10 -15
-5 -41 -23 -41 -24 0 -30 8 -24 31 5 19 37 26 47 10z m-3747 -17 c2 -7 -12
-22 -32 -34 -28 -17 -39 -19 -50 -10 -7 6 -11 18 -8 27 11 29 82 42 90 17z
m1101 -5 c31 -11 49 -37 35 -49 -13 -12 -94 1 -100 16 -7 20 4 44 20 44 8 0
28 -5 45 -11z m2047 -19 c-3 -5 -27 -10 -53 -10 -34 0 -43 3 -32 10 20 13 93
13 85 0z m628 -20 c3 -11 1 -23 -4 -26 -5 -3 -9 6 -9 20 0 31 6 34 13 6z
m-3768 -10 c4 -6 -1 -22 -9 -35 -14 -21 -14 -25 -2 -25 13 0 26 -20 26 -41 0
-11 -61 -39 -85 -39 -22 0 -20 56 3 69 15 9 15 10 -5 11 -16 0 -23 6 -23 20 0
16 5 19 31 13 25 -5 31 -2 36 16 6 23 18 27 28 11z m3640 0 c14 -7 6 -9 -32
-7 -28 1 -49 5 -46 9 6 11 53 9 78 -2z m-2615 -15 c0 -23 36 -38 59 -23 11 7
23 9 26 6 12 -12 -16 -48 -38 -48 -20 -1 -20 -2 -4 -11 18 -11 23 -54 7 -64
-14 -9 -86 13 -100 29 -14 18 3 56 25 56 12 0 13 4 4 19 -13 20 -6 51 11 51 5
0 10 -7 10 -15z m2780 -188 c0 -19 -21 -37 -42 -37 -18 0 -25 29 -11 43 12 12
53 7 53 -6z m-3760 -12 c0 -9 -20 -20 -52 -30 -63 -18 -68 -19 -68 -2 0 8 21
21 48 29 61 21 72 21 72 3z m943 -21 c26 -9 49 -20 53 -25 14 -23 -11 -25 -68
-4 -99 36 -85 63 15 29z m2864 -80 c-3 -3 -12 -4 -19 -1 -8 3 -5 6 6 6 11 1
17 -2 13 -5z m-3827 -104 c0 -5 8 -10 18 -10 26 0 34 -11 21 -26 -9 -10 -7
-15 5 -20 18 -7 22 -39 5 -49 -7 -5 -5 -11 4 -18 12 -10 21 -43 32 -122 1 -5
5 -18 9 -27 13 -29 2 -51 -29 -60 -47 -13 -75 -2 -75 29 0 21 3 24 12 15 16
-16 28 -15 28 3 0 9 -9 15 -24 15 -29 0 -42 28 -22 48 13 13 12 17 -4 31 -26
23 -35 80 -12 87 48 16 55 22 17 17 l-40 -5 -2 39 c-2 21 -1 44 2 51 5 14 55
17 55 2z m898 -32 c7 -16 17 -28 23 -28 5 0 9 -4 9 -10 0 -5 -6 -10 -14 -10
-10 0 -14 -9 -13 -27 1 -20 -5 -30 -23 -39 -20 -11 -21 -14 -8 -19 20 -8 12
-42 -12 -50 -10 -3 -35 1 -54 9 -38 16 -48 44 -22 66 8 6 12 19 9 27 -6 16 -7
17 67 -1 14 -4 5 3 -20 14 -38 18 -43 23 -29 33 9 7 14 18 11 25 -16 48 53 57
76 10z m-1621 -68 c48 -11 93 -27 99 -35 8 -11 6 -29 -7 -72 -10 -32 -27 -105
-37 -163 l-18 -105 -37 -9 c-48 -12 -126 18 -144 54 -6 14 -15 75 -18 135 -8
125 5 181 46 202 29 15 13 17 116 -7z m2848 -90 c10 -11 16 -22 13 -25 -3 -3
-50 -7 -106 -10 -153 -7 -150 -5 -139 -73 4 -31 8 -71 8 -89 l0 -32 102 2 102
2 0 -29 c0 -24 -6 -31 -35 -42 -19 -7 -59 -13 -88 -13 -38 -1 -52 -5 -49 -13
3 -10 29 -12 95 -10 73 2 90 -1 86 -11 -13 -35 -141 -49 -195 -22 -41 21 -48
46 -60 203 -13 162 -12 164 89 173 134 12 158 10 177 -11z m-1320 -30 c3 -5
17 -10 31 -10 27 0 33 -17 9 -26 -10 -4 -12 -10 -6 -18 15 -18 -21 -81 -45
-79 -47 5 -74 22 -74 48 0 16 6 25 15 25 8 0 15 -6 15 -14 0 -11 5 -12 25 -3
l25 12 -30 13 c-31 12 -34 19 -24 46 7 18 49 22 59 6z m3165 -40 c0 -5 -7 -7
-15 -4 -8 4 -15 8 -15 10 0 2 7 4 15 4 8 0 15 -4 15 -10z m-3845 -176 c0 -15
-9 -20 -50 -25 -31 -4 -53 -2 -57 5 -14 20 -8 26 25 26 17 0 39 5 47 10 21 13
35 7 35 -16z m591 1 c16 -8 37 -15 47 -15 9 0 17 -7 17 -15 0 -19 -29 -32 -39
-17 -3 6 -20 14 -36 18 -41 9 -45 12 -38 29 7 19 14 19 49 0z m844 -10 c0 -21
-5 -25 -28 -25 -47 0 -118 -52 -141 -104 -21 -48 -29 -54 -49 -34 -16 16 -15
38 2 38 9 0 12 7 9 20 -3 12 1 22 11 26 9 3 16 10 16 16 0 15 27 38 44 38 9 0
16 5 16 10 0 6 7 10 16 10 8 0 22 7 30 15 9 8 29 15 45 15 24 0 29 -4 29 -25z
m74 -16 c37 -43 32 -51 -14 -26 -23 13 -40 29 -40 40 0 27 25 20 54 -14z
m-1499 -19 c3 -6 -4 -14 -17 -19 l-23 -10 23 0 c42 -2 24 -28 -24 -36 -53 -8
-68 0 -40 21 19 14 19 14 -1 14 -38 0 -35 19 4 25 21 4 43 8 48 10 18 6 24 5
30 -5z m579 -14 c44 -18 59 -41 22 -34 -30 6 -33 0 -9 -18 31 -22 6 -27 -42
-9 -55 22 -66 35 -28 35 25 1 26 2 11 14 -37 28 -10 35 46 12z m912 -47 c40
-33 66 -91 65 -145 0 -66 -21 -108 -64 -130 -99 -52 -212 13 -224 130 -8 76
27 135 93 156 38 12 110 6 130 -11z m-1473 -31 c9 -33 1 -38 -59 -38 -60 0
-65 14 -10 24 19 4 37 13 40 21 8 22 23 18 29 -7z m506 -19 c23 -8 35 -8 45 0
10 9 16 9 21 1 11 -17 -3 -40 -23 -40 -27 0 -92 28 -92 40 0 13 10 13 49 -1z
m-494 -60 c0 -22 -4 -24 -52 -27 -51 -3 -53 -2 -53 22 0 27 15 35 23 14 4 -10
8 -9 17 2 9 11 13 12 17 3 5 -14 24 -18 22 -5 -3 17 2 23 14 20 6 -3 12 -16
12 -29z m455 15 c0 -11 6 -14 20 -9 15 5 20 2 20 -11 0 -14 3 -15 12 -6 18 18
28 15 28 -8 0 -28 -22 -34 -65 -20 -38 13 -51 30 -41 55 7 20 26 19 26 -1z
m724 0 c11 -4 16 -19 16 -43 1 -76 74 -174 142 -188 32 -6 42 -27 23 -43 -33
-28 -135 37 -180 114 -26 44 -42 123 -32 150 7 18 9 18 31 10z m-1165 -76 c12
-30 -11 -48 -60 -48 -32 0 -38 4 -43 27 -9 32 5 43 57 43 30 0 39 -5 46 -22z
m478 1 c16 -14 17 -56 1 -62 -22 -7 -98 26 -98 43 0 39 59 50 97 19z m-64
-131 c27 -10 36 -31 17 -43 -6 -4 -8 -11 -5 -16 4 -5 0 -12 -8 -15 -8 -3 -12
-14 -10 -28 6 -30 -19 -40 -64 -25 -25 8 -33 16 -33 34 0 12 7 28 15 35 8 7
12 16 9 21 -3 5 -2 15 3 22 4 6 8 15 9 20 1 4 2 10 3 13 0 3 9 3 19 -1 9 -4
29 -12 45 -17z m-387 -20 c2 -26 0 -28 -34 -29 -20 -1 -28 -3 -17 -6 11 -2 30
-6 43 -9 15 -3 22 -12 22 -29 0 -23 -4 -25 -44 -25 -35 0 -46 4 -51 19 -3 10
-5 23 -4 27 1 5 -3 22 -9 37 -17 40 -7 49 45 45 42 -3 46 -5 49 -30z m287
-129 c5 -19 11 -21 42 -15 34 7 36 6 25 -13 -20 -38 -100 -14 -100 30 0 26 26
24 33 -2z m-306 -9 c13 0 23 5 23 10 0 6 5 10 11 10 21 0 4 -45 -18 -48 -29
-4 -63 15 -63 35 0 13 3 14 12 5 7 -7 22 -12 35 -12z m19 -129 c5 1 23 -4 39
-12 l30 -13 -39 -4 c-40 -3 -56 8 -56 38 0 12 2 12 9 2 4 -7 12 -12 17 -11z
m230 4 c-7 -18 5 -20 22 -3 9 9 12 9 12 -2 0 -7 7 -22 17 -32 15 -17 15 -18
-5 -18 -50 0 -90 39 -65 63 12 13 25 7 19 -8z m-26 -70 c0 -9 6 -12 15 -9 8 4
15 1 15 -6 0 -10 3 -10 15 0 12 10 15 10 15 -1 -1 -34 -16 -41 -54 -25 -39 16
-39 16 -30 40 8 20 24 21 24 1z m-178 -6 c15 -8 22 -8 28 1 5 8 9 5 13 -9 4
-17 1 -21 -22 -21 -26 0 -51 16 -51 32 0 11 7 10 32 -3z m48 -57 c0 -5 -13 -9
-30 -9 -16 0 -30 4 -30 9 0 4 14 8 30 8 17 0 30 -4 30 -8z m141 -2 c42 -23 9
-69 -35 -49 -27 13 -30 18 -20 43 7 18 27 20 55 6z m-136 -30 c3 -6 -5 -10
-19 -10 -14 0 -28 5 -31 10 -3 6 5 10 19 10 14 0 28 -4 31 -10z"/>
<path d="M2722 4039 c2 -7 10 -15 17 -17 8 -3 12 1 9 9 -2 7 -10 15 -17 17 -8
3 -12 -1 -9 -9z"/>
<path d="M3777 6894 c-3 -4 -2 -15 3 -25 10 -18 7 -83 -6 -126 -5 -19 -2 -23
14 -23 17 0 20 6 18 52 -2 74 19 74 74 -2 54 -74 70 -77 70 -11 0 45 -2 48
-23 44 -19 -4 -29 5 -55 46 -26 42 -36 51 -60 51 -16 0 -32 -3 -35 -6z"/>
<path d="M3935 6890 c-3 -5 -1 -19 6 -31 10 -20 12 -21 21 -5 16 29 -10 64
-27 36z"/>
<path d="M3504 6874 c-77 -38 -70 -147 11 -174 69 -23 130 21 129 92 -2 72
-75 115 -140 82z m66 -22 c15 -12 24 -33 27 -64 5 -42 3 -48 -21 -63 -26 -17
-27 -17 -51 5 -20 18 -25 34 -25 70 0 67 26 87 70 52z"/>
<path d="M3231 6814 c-89 -28 -118 -107 -62 -174 25 -31 34 -35 76 -35 40 0
51 5 76 33 27 30 38 62 22 62 -5 -1 -17 -15 -28 -33 -29 -45 -71 -45 -102 2
-44 65 -19 126 49 119 27 -2 33 0 33 16 0 25 -11 27 -64 10z"/>
<path d="M3240 6726 c0 -42 32 -63 44 -28 3 9 9 23 12 30 4 8 -4 12 -25 12
-20 0 -31 -5 -31 -14z"/>
<path d="M4298 6779 c-3 -30 -14 -62 -27 -80 -13 -17 -21 -32 -19 -33 17 -13
106 -38 134 -38 52 0 74 25 74 83 0 41 -4 50 -29 68 -30 21 -58 34 -102 44
-26 7 -27 5 -31 -44z m109 -11 c28 -26 29 -43 3 -86 -17 -28 -25 -33 -53 -30
-27 3 -32 7 -35 33 -4 41 24 105 45 105 9 0 27 -10 40 -22z"/>
<path d="M4612 6657 c2 -25 -43 -91 -68 -101 -9 -3 -14 -10 -12 -15 5 -14 111
-91 125 -91 26 0 12 28 -16 33 -55 11 -63 77 -10 77 17 0 18 3 7 21 -11 17
-10 22 6 35 28 20 42 18 64 -11 20 -25 42 -33 42 -15 0 11 -114 90 -129 90 -6
0 -10 -10 -9 -23z"/>
<path d="M2813 6530 c-51 -46 -65 -70 -43 -70 22 0 90 -73 90 -96 0 -29 3 -30
40 -2 37 27 37 33 3 50 -20 10 -27 21 -26 36 2 15 -3 22 -15 22 -50 0 -47 49
4 74 19 9 32 21 29 26 -11 18 -30 10 -82 -40z"/>
<path d="M4960 5360 c8 -5 20 -10 25 -10 6 0 3 5 -5 10 -8 5 -19 10 -25 10 -5
0 -3 -5 5 -10z"/>
<path d="M4900 5271 c0 -12 39 -35 46 -28 3 2 -7 12 -21 21 -14 9 -25 12 -25
7z"/>
<path d="M4870 6408 c-19 -22 -47 -45 -62 -50 -33 -12 -30 -20 32 -91 35 -39
45 -45 57 -36 12 10 9 14 -16 25 -48 20 -49 50 -5 95 21 21 46 39 56 39 10 0
18 4 18 10 0 11 -32 50 -40 49 -3 0 -21 -19 -40 -41z"/>
<path d="M2569 6293 c-18 -27 -41 -58 -52 -70 -21 -24 -16 -43 12 -43 11 0 43
-22 72 -50 29 -27 56 -50 59 -50 3 0 27 30 54 66 44 60 47 67 33 82 -15 14
-17 14 -22 -4 -10 -32 -20 -47 -38 -58 -23 -15 -53 5 -49 32 2 17 -2 20 -30
19 -47 -3 -50 31 -8 67 20 16 30 32 26 41 -9 25 -24 17 -57 -32z"/>
<path d="M5076 6155 c-21 -19 -51 -37 -67 -40 -27 -6 -42 -35 -19 -35 6 0 10
-7 10 -15 0 -21 12 -19 33 5 9 11 23 20 30 20 8 0 22 9 32 20 10 11 26 20 37
20 23 0 23 12 1 38 l-18 21 -39 -34z"/>
<path d="M5166 6055 c-3 -8 -12 -15 -21 -15 -8 0 -24 -9 -35 -20 -11 -11 -29
-20 -40 -20 -24 0 -27 -32 -5 -50 13 -11 19 -9 38 7 33 29 74 53 91 53 22 0
28 17 14 40 -15 24 -34 26 -42 5z"/>
<path d="M2412 5995 c-25 -21 -81 -138 -74 -155 1 -3 15 -6 30 -7 31 -1 106
-36 117 -53 14 -23 32 -7 52 48 42 109 39 148 -16 177 -43 22 -75 19 -109 -10z
m64 -35 c43 -16 69 -56 55 -86 -14 -30 -43 -31 -96 -1 -48 27 -56 58 -23 81
27 19 27 19 64 6z"/>
<path d="M2440 5920 c0 -8 24 -20 41 -20 6 0 8 4 5 9 -8 12 -46 21 -46 11z"/>
<path d="M3680 5980 c-28 -28 -27 -84 2 -104 52 -37 108 -8 108 56 0 62 -67
91 -110 48z"/>
<path d="M5255 5820 c-18 -20 -74 -36 -107 -31 -21 3 -21 3 -7 -38 11 -32 23
-39 34 -21 11 17 83 50 110 50 18 0 25 4 21 13 -3 6 -9 20 -12 30 -8 22 -17
22 -39 -3z"/>
<path d="M3410 5803 c-67 -26 -43 -133 29 -133 39 0 61 24 61 66 0 54 -42 85
-90 67z"/>
<path d="M2860 4396 c0 -8 5 -18 10 -21 6 -3 10 3 10 14 0 12 -4 21 -10 21 -5
0 -10 -6 -10 -14z"/>
<path d="M3596 4465 c-4 -10 1 -15 14 -15 11 0 20 7 20 15 0 8 -6 15 -14 15
-8 0 -16 -7 -20 -15z"/>
<path d="M3996 4472 c-2 -4 -1 -14 4 -21 4 -8 4 -27 -2 -42 -7 -21 -6 -37 3
-59 14 -31 35 -46 37 -27 1 7 4 33 8 59 5 36 3 54 -10 73 -17 25 -31 31 -40
17z"/>
<path d="M3285 4021 c-13 -22 44 -32 124 -22 2 1 -2 8 -9 16 -14 17 -105 21
-115 6z"/>
<path d="M4662 4184 c-25 -17 -29 -34 -8 -34 8 0 29 -15 46 -32 24 -26 30 -39
26 -60 -7 -36 1 -35 47 7 42 40 44 45 18 45 -10 0 -36 20 -57 45 -20 25 -40
45 -43 45 -4 0 -17 -7 -29 -16z"/>
<path d="M6160 4030 c0 -5 5 -10 10 -10 6 0 10 5 10 10 0 6 -4 10 -10 10 -5 0
-10 -4 -10 -10z"/>
<path d="M6214 3888 c-8 -12 22 -38 43 -38 11 0 10 6 -4 25 -20 27 -29 30 -39
13z"/>
<path d="M6217 3804 c-4 -4 -3 -12 1 -18 4 -6 7 -15 7 -21 0 -5 6 -10 13 -10
6 0 12 3 12 8 0 4 0 16 0 27 0 19 -20 27 -33 14z"/>
<path d="M6180 3710 c0 -5 7 -10 15 -10 8 0 20 -9 27 -20 15 -23 48 -27 48 -5
0 9 -9 15 -24 15 -13 0 -26 7 -30 15 -6 17 -36 21 -36 5z"/>
<path d="M6682 3688 c4 -28 74 -66 91 -49 8 8 4 11 -16 11 -23 0 -29 5 -33 30
-8 37 -48 45 -42 8z"/>
<path d="M6838 3704 c-4 -6 -4 -20 -1 -32 8 -32 75 -31 97 0 18 26 20 38 6 38
-5 0 -10 -6 -10 -14 0 -42 -76 -45 -82 -3 -2 12 -6 17 -10 11z"/>
<path d="M6340 3675 c0 -10 7 -15 18 -13 21 4 19 22 -2 26 -10 2 -16 -3 -16
-13z"/>
<path d="M6286 3615 c-4 -10 1 -15 14 -15 11 0 20 7 20 15 0 8 -6 15 -14 15
-8 0 -16 -7 -20 -15z"/>
<path d="M4375 3998 c-11 -6 -21 -12 -23 -13 -2 -2 8 -14 22 -28 30 -31 43
-74 28 -97 -17 -28 -5 -29 49 -7 54 23 60 32 28 42 -13 4 -30 28 -45 61 -25
58 -28 60 -59 42z"/>
<path d="M3541 3737 c-14 -7 -26 -18 -29 -24 -5 -18 29 -16 52 2 28 21 9 38
-23 22z"/>
<path d="M3360 3705 c0 -8 7 -15 16 -15 14 0 14 3 4 15 -7 8 -14 15 -16 15 -2
0 -4 -7 -4 -15z"/>
<path d="M3417 3704 c-11 -12 3 -24 28 -24 12 0 25 7 29 15 4 11 -2 15 -23 15
-15 0 -31 -3 -34 -6z"/>
<path d="M3327 2013 c-12 -11 -8 -23 8 -23 8 0 15 7 15 15 0 16 -12 20 -23 8z"/>
<path d="M3282 800 c0 -14 2 -19 5 -12 2 6 2 18 0 25 -3 6 -5 1 -5 -13z"/>
<path d="M2930 1450 c-13 -9 -13 -10 0 -10 8 0 22 5 30 10 13 9 13 10 0 10 -8
0 -22 -5 -30 -10z"/>
<path d="M2950 1409 c0 -5 5 -7 10 -4 6 3 10 8 10 11 0 2 -4 4 -10 4 -5 0 -10
-5 -10 -11z"/>
<path d="M3730 1439 c0 -5 4 -9 9 -9 5 0 17 -3 27 -7 11 -4 15 -3 11 4 -9 14
-47 24 -47 12z"/>
<path d="M2089 1458 c-6 -11 -9 -32 -6 -46 3 -14 -2 -36 -11 -50 -13 -21 -13
-25 0 -38 11 -11 149 -54 174 -54 1 0 2 15 1 33 -1 17 2 55 7 84 l8 52 -39 10
c-111 29 -123 30 -134 9z"/>
<path d="M2092 1199 c3 -8 20 -17 39 -21 19 -3 44 -9 55 -13 13 -4 25 -2 29 5
10 16 3 20 -36 25 -19 3 -47 7 -63 11 -21 5 -27 3 -24 -7z"/>
<path d="M3043 883 c9 -2 23 -2 30 0 6 3 -1 5 -18 5 -16 0 -22 -2 -12 -5z"/>
<path d="M3530 880 c8 -5 22 -9 30 -9 10 0 8 3 -5 9 -27 12 -43 12 -25 0z"/>
<path d="M3450 670 c8 -5 24 -10 35 -10 17 0 17 2 5 10 -8 5 -24 10 -35 10
-17 0 -17 -2 -5 -10z"/>
<path d="M3088 673 c6 -2 18 -2 25 0 6 3 1 5 -13 5 -14 0 -19 -2 -12 -5z"/>
<path d="M3315 330 c3 -5 13 -10 21 -10 8 0 12 5 9 10 -3 6 -13 10 -21 10 -8
0 -12 -4 -9 -10z"/>
<path d="M6897 6023 c-3 -5 -8 -281 -11 -615 l-6 -608 138 0 c201 0 182 -18
182 176 0 141 -2 163 -15 158 -9 -4 -15 0 -15 10 0 9 7 16 15 16 11 0 15 11
15 40 0 29 -4 40 -15 40 -8 0 -15 5 -15 10 0 6 7 10 15 10 13 0 15 49 15 385
l0 385 -149 0 c-83 0 -152 -3 -154 -7z m267 -355 c32 -45 14 -88 -36 -88 -23
0 -31 7 -43 37 -15 36 -15 39 6 55 29 24 55 23 73 -4z m-200 -3 c-4 -8 -10
-15 -15 -15 -5 0 -9 7 -9 15 0 8 7 15 15 15 9 0 12 -6 9 -15z m-34 -455 c0 -5
-4 -10 -10 -10 -5 0 -10 5 -10 10 0 6 5 10 10 10 6 0 10 -4 10 -10z m160 -70
c0 -5 -4 -10 -10 -10 -5 0 -10 5 -10 10 0 6 5 10 10 10 6 0 10 -4 10 -10z
m-120 -10 c0 -5 -7 -10 -16 -10 -8 0 -12 5 -9 10 3 6 10 10 16 10 5 0 9 -4 9
-10z m60 -75 c0 -8 -7 -15 -15 -15 -8 0 -15 7 -15 15 0 8 7 15 15 15 8 0 15
-7 15 -15z m100 0 c0 -8 -4 -15 -10 -15 -5 0 -10 7 -10 15 0 8 5 15 10 15 6 0
10 -7 10 -15z m-192 -103 c6 -18 -15 -14 -22 4 -4 10 -1 14 6 12 6 -2 14 -10
16 -16z m92 8 c0 -5 -4 -10 -10 -10 -5 0 -10 5 -10 10 0 6 5 10 10 10 6 0 10
-4 10 -10z m94 1 c3 -5 -1 -11 -9 -15 -15 -6 -29 7 -18 18 9 9 21 8 27 -3z
m-27 -96 c0 -8 -4 -15 -9 -15 -4 0 -8 7 -8 15 0 8 4 15 8 15 5 0 9 -7 9 -15z
m80 9 c-3 -3 -12 -4 -19 -1 -8 3 -5 6 6 6 11 1 17 -2 13 -5z m-237 -13 c0 -6
-4 -13 -10 -16 -5 -3 -10 1 -10 9 0 9 5 16 10 16 6 0 10 -4 10 -9z"/>
<path d="M1885 4950 c-3 -6 1 -13 10 -16 19 -8 30 0 20 15 -8 14 -22 14 -30 1z"/>
<path d="M1990 4850 c0 -5 5 -10 10 -10 6 0 10 5 10 10 0 6 -4 10 -10 10 -5 0
-10 -4 -10 -10z"/>
<path d="M528 4633 l-157 -4 6 -97 c3 -53 8 -99 10 -102 5 -6 196 -2 443 8
215 9 234 16 238 84 2 27 -1 56 -7 65 -6 11 -6 24 0 35 10 19 -35 20 -533 11z
m502 -22 c0 -14 -18 -23 -31 -15 -8 4 -7 9 2 15 18 11 29 11 29 0z m-130 -11
c0 -5 -7 -10 -15 -10 -8 0 -15 5 -15 10 0 6 7 10 15 10 8 0 15 -4 15 -10z"/>
<path d="M2168 4023 c7 -3 16 -2 19 1 4 3 -2 6 -13 5 -11 0 -14 -3 -6 -6z"/>
<path d="M2488 3923 c7 -3 16 -2 19 1 4 3 -2 6 -13 5 -11 0 -14 -3 -6 -6z"/>
<path d="M2198 3804 c-4 -3 0 -21 8 -39 16 -39 3 -57 -37 -53 -21 3 -24 0 -21
-29 3 -33 3 -33 -42 -33 -43 0 -59 -11 -36 -25 7 -4 6 -13 -1 -26 -8 -16 -20
-20 -52 -19 -105 4 -127 1 -127 -19 0 -11 6 -21 13 -24 22 -8 382 5 392 14 5
6 5 13 -3 21 -21 21 -13 28 28 28 22 0 41 5 41 10 5 37 16 49 39 43 17 -4 20
0 20 25 0 23 -8 36 -30 52 -16 12 -30 28 -30 36 0 8 -8 14 -17 14 -10 0 -27 7
-37 15 -19 15 -97 21 -108 9z m122 -124 c-19 -13 -30 -13 -30 0 0 6 10 10 23
10 18 0 19 -2 7 -10z m-145 -61 c9 -14 7 -15 -37 -22 -28 -4 -38 -2 -38 8 0
12 17 19 57 24 6 0 15 -4 18 -10z"/>
<path d="M0 3698 l0 -103 116 2 c105 2 118 5 135 24 20 24 20 24 23 117 l1 62
-137 0 -138 0 0 -102z"/>
<path d="M2325 3560 c3 -5 10 -10 16 -10 5 0 9 5 9 10 0 6 -7 10 -16 10 -8 0
-12 -4 -9 -10z"/>
<path d="M433 3543 c9 -2 23 -2 30 0 6 3 -1 5 -18 5 -16 0 -22 -2 -12 -5z"/>
<path d="M40 3460 c0 -5 7 -10 16 -10 8 0 12 5 9 10 -3 6 -10 10 -16 10 -5 0
-9 -4 -9 -10z"/>
<path d="M6723 3377 c-24 -23 -30 -47 -14 -47 6 0 13 5 16 10 4 6 21 8 41 4
29 -5 34 -4 34 14 0 11 -8 22 -17 26 -10 3 -22 8 -28 10 -5 3 -20 -5 -32 -17z"/>
<path d="M7181 3383 c1 -10 5 -29 9 -43 7 -21 8 -19 9 18 1 23 -3 42 -9 42 -5
0 -10 -8 -9 -17z"/>
<path d="M6874 3364 c3 -9 6 -18 6 -20 0 -2 5 -4 10 -4 6 0 10 9 10 20 0 12
-7 20 -16 20 -11 0 -14 -5 -10 -16z"/>
<path d="M6807 3314 c-11 -12 3 -24 29 -24 15 0 24 6 24 15 0 15 -40 21 -53 9z"/>
<path d="M7090 3285 c0 -13 4 -14 23 -4 33 17 33 19 4 19 -18 0 -27 -5 -27
-15z"/>
<path d="M6095 3270 c3 -5 8 -10 11 -10 2 0 4 5 4 10 0 6 -5 10 -11 10 -5 0
-7 -4 -4 -10z"/>
<path d="M6740 3255 c0 -14 6 -25 14 -25 9 0 12 8 8 25 -2 14 -8 25 -13 25 -5
0 -9 -11 -9 -25z"/>
<path d="M6179 3189 c-21 -22 -39 -45 -39 -50 0 -5 -6 -9 -13 -9 -7 0 -26 -13
-42 -30 l-29 -30 36 0 c27 0 37 5 41 20 3 11 10 20 17 20 7 0 9 -8 5 -20 -6
-19 -2 -20 89 -20 52 0 97 4 100 9 3 4 -13 13 -35 20 -38 11 -39 14 -34 44 5
25 1 38 -17 60 -13 15 -27 27 -32 27 -4 0 -25 -18 -47 -41z m21 -39 c0 -5 -5
-10 -11 -10 -5 0 -7 5 -4 10 3 6 8 10 11 10 2 0 4 -4 4 -10z m25 -30 c3 -5 -1
-10 -10 -10 -9 0 -13 5 -10 10 3 6 8 10 10 10 2 0 7 -4 10 -10z"/>
<path d="M6872 3214 c2 -11 11 -20 22 -22 13 -3 17 1 14 14 -2 11 -11 20 -22
22 -13 3 -17 -1 -14 -14z"/>
<path d="M6785 3170 c-3 -5 1 -10 9 -10 9 0 16 5 16 10 0 6 -4 10 -9 10 -6 0
-13 -4 -16 -10z"/>
<path d="M6710 3150 c0 -5 6 -10 14 -10 8 0 18 5 21 10 3 6 -3 10 -14 10 -12
0 -21 -4 -21 -10z"/>
<path d="M6040 3125 c0 -9 5 -15 11 -13 6 2 11 8 11 13 0 5 -5 11 -11 13 -6 2
-11 -4 -11 -13z"/>
<path d="M6455 3129 c-11 -4 -16 -8 -11 -8 5 -1 3 -8 -4 -16 -8 -10 -10 -19
-4 -25 14 -14 54 0 54 19 0 27 -14 39 -35 30z"/>
<path d="M6367 3040 c-3 -11 -1 -23 4 -26 5 -3 9 6 9 20 0 31 -6 34 -13 6z"/>
<path d="M1955 3040 c-3 -5 -1 -10 4 -10 6 0 11 5 11 10 0 6 -2 10 -4 10 -3 0
-8 -4 -11 -10z"/>
<path d="M6440 3030 c0 -20 25 -38 36 -27 7 6 -18 47 -28 47 -5 0 -8 -9 -8
-20z"/>
<path d="M1908 2973 c-15 -18 -6 -25 33 -26 24 -2 34 3 37 14 4 22 -53 32 -70
12z"/>
<path d="M2005 2970 c-17 -7 -14 -9 13 -9 20 -1 31 3 27 9 -7 12 -13 12 -40 0z"/>
<path d="M35 2960 c3 -5 8 -10 11 -10 2 0 4 5 4 10 0 6 -5 10 -11 10 -5 0 -7
-4 -4 -10z"/>
<path d="M2710 2930 c0 -5 4 -10 9 -10 6 0 13 5 16 10 3 6 -1 10 -9 10 -9 0
-16 -4 -16 -10z"/>
<path d="M1763 2885 c-9 -24 4 -30 34 -16 22 10 24 14 12 22 -21 13 -39 11
-46 -6z"/>
<path d="M2773 2868 c-13 -6 -23 -15 -23 -20 0 -16 47 -8 65 12 17 19 17 20
-1 19 -10 0 -29 -5 -41 -11z"/>
<path d="M625 2843 c-16 -2 -39 -8 -50 -12 -11 -5 -28 -12 -37 -15 -14 -4 -17
-16 -15 -56 2 -42 5 -50 22 -51 11 0 14 -3 8 -6 -27 -10 -11 -21 32 -21 33 0
51 5 65 20 16 17 23 19 49 10 16 -6 32 -8 34 -5 3 3 10 -12 16 -33 15 -53 3
-61 -107 -67 -81 -5 -92 -4 -82 9 10 11 8 14 -10 14 -15 0 -20 -5 -17 -14 3
-8 0 -17 -7 -19 -8 -3 -11 -17 -8 -35 2 -16 -1 -32 -6 -36 -7 -4 -1 -22 13
-49 l24 -42 -40 3 c-42 4 -72 -18 -62 -44 3 -8 -8 -15 -30 -19 -27 -5 -34 -11
-30 -24 5 -20 33 -24 33 -5 0 8 11 16 23 20 19 4 23 11 20 29 -6 28 26 42 58
25 15 -9 19 -18 15 -35 -4 -14 0 -27 9 -35 8 -7 15 -22 15 -34 0 -15 -3 -17
-9 -7 -6 9 -10 4 -13 -19 -3 -22 0 -34 12 -40 14 -8 15 -16 7 -62 -5 -29 -11
-59 -13 -65 -2 -8 -20 -13 -43 -13 -31 0 -39 -3 -35 -15 3 -8 9 -14 12 -13 4
0 24 0 45 -1 26 -1 37 -5 37 -17 0 -8 -4 -12 -10 -9 -17 11 -12 -77 6 -96 9
-10 18 -29 19 -41 1 -13 3 -26 4 -30 0 -5 16 -8 34 -8 19 0 37 -3 41 -7 3 -4
30 -8 58 -10 29 -2 57 -8 62 -14 8 -7 -7 -9 -48 -4 -33 3 -62 7 -64 10 -3 3
-11 0 -17 -5 -7 -6 -94 -13 -194 -17 l-181 -6 10 33 c5 18 7 37 4 42 -8 13
-24 -1 -18 -15 7 -20 -27 -45 -76 -55 -78 -17 -80 -15 -80 44 0 29 -4 56 -10
59 -6 4 -10 -18 -10 -59 l0 -66 33 -2 c17 -1 41 -1 52 0 11 1 160 1 331 1 251
0 313 3 322 14 7 8 9 17 6 20 -6 6 -25 276 -60 882 -3 55 -9 103 -12 106 -9 8
-99 16 -137 12z m115 -114 c0 -5 -4 -9 -10 -9 -5 0 -10 7 -10 16 0 8 5 12 10
9 6 -3 10 -10 10 -16z m-23 -195 c-3 -3 -12 -4 -19 -1 -8 3 -5 6 6 6 11 1 17
-2 13 -5z m29 -132 c-11 -10 -15 4 -8 28 l7 25 3 -23 c2 -13 1 -26 -2 -30z
m26 -157 c2 -81 -6 -101 -27 -71 -8 10 -25 24 -37 30 -20 10 -23 19 -23 74 0
39 5 66 14 74 11 10 14 10 18 1 7 -19 23 -16 23 5 1 12 5 9 16 -11 9 -16 15
-57 16 -102z m-172 39 c0 -17 -22 -14 -28 4 -2 7 3 12 12 12 9 0 16 -7 16 -16z
m40 -60 c0 -8 -4 -12 -10 -9 -5 3 -10 10 -10 16 0 5 5 9 10 9 6 0 10 -7 10
-16z"/>
<path d="M690 2280 c0 -33 3 -40 20 -40 14 0 20 7 20 21 0 11 5 17 10 14 6 -4
10 5 10 19 0 22 -4 26 -30 26 -28 0 -30 -2 -30 -40z"/>
<path d="M20 2831 c0 -6 5 -13 10 -16 6 -3 10 1 10 9 0 9 -4 16 -10 16 -5 0
-10 -4 -10 -9z"/>
<path d="M1707 2834 c-4 -4 -3 -12 0 -18 24 -37 6 -76 -33 -76 -15 0 -24 -6
-24 -16 0 -9 8 -14 18 -13 33 3 36 -1 15 -16 -12 -8 -28 -12 -37 -9 -12 5 -16
0 -16 -20 0 -14 -5 -26 -11 -26 -5 0 -8 -4 -5 -9 3 -5 -1 -12 -10 -15 -12 -4
-14 -1 -9 14 4 11 2 20 -4 20 -6 0 -11 -11 -11 -24 0 -22 -3 -23 -32 -16 -18
4 -41 11 -50 15 -33 13 -19 -15 15 -29 l32 -14 -36 -1 c-20 -1 -50 -8 -65 -16
-27 -14 -22 -15 89 -15 64 0 117 4 117 9 0 5 -8 7 -18 4 -12 -3 -18 2 -19 16
-2 18 7 20 79 27 l80 7 -6 30 c-3 16 -6 33 -6 38 0 5 -6 9 -13 9 -11 0 -47 34
-47 44 0 2 9 6 20 9 14 3 20 14 20 31 0 14 4 26 9 26 5 0 7 9 4 20 -5 19 -32
27 -46 14z m23 -170 c0 -11 -5 -14 -16 -10 -9 3 -20 6 -25 6 -6 0 -7 5 -4 10
10 16 45 12 45 -6z m-60 -4 c0 -5 -7 -10 -16 -10 -8 0 -12 5 -9 10 3 6 10 10
16 10 5 0 9 -4 9 -10z"/>
<path d="M2621 2784 c0 -11 3 -14 6 -6 3 7 2 16 -1 19 -3 4 -6 -2 -5 -13z"/>
<path d="M34 2756 c-8 -22 3 -33 18 -18 9 9 9 15 0 24 -9 9 -13 7 -18 -6z"/>
<path d="M102 2740 c16 -24 35 -33 44 -18 8 12 -22 38 -43 38 -11 0 -11 -4 -1
-20z"/>
<path d="M240 2730 c0 -5 5 -10 11 -10 5 0 7 5 4 10 -3 6 -8 10 -11 10 -2 0
-4 -4 -4 -10z"/>
<path d="M31 2705 c-1 -24 14 -50 22 -38 3 4 -1 19 -9 33 -12 22 -13 23 -13 5z"/>
<path d="M295 2690 c-18 -8 -17 -9 8 -9 16 -1 26 3 22 9 -3 6 -7 10 -8 9 -1 0
-11 -4 -22 -9z"/>
<path d="M368 2693 c7 -3 16 -2 19 1 4 3 -2 6 -13 5 -11 0 -14 -3 -6 -6z"/>
<path d="M1474 2684 c-16 -13 -16 -15 -2 -10 10 3 20 1 23 -4 4 -6 23 -10 43
-9 l37 1 -35 10 c-19 5 -37 14 -41 19 -3 5 -14 2 -25 -7z"/>
<path d="M515 2680 c-3 -5 -1 -10 4 -10 6 0 11 5 11 10 0 6 -2 10 -4 10 -3 0
-8 -4 -11 -10z"/>
<path d="M42 2630 c0 -14 2 -19 5 -12 2 6 2 18 0 25 -3 6 -5 1 -5 -13z"/>
<path d="M90 2593 c0 -10 7 -26 15 -37 12 -16 24 -18 85 -14 70 5 100 -5 100
-33 0 -5 4 -9 10 -9 11 0 1 30 -16 48 -7 6 -22 12 -33 12 -12 0 -29 8 -40 19
-18 18 -18 18 -30 0 -16 -27 -50 -24 -61 6 -11 29 -30 34 -30 8z"/>
<path d="M1340 2600 c0 -5 5 -10 11 -10 5 0 7 5 4 10 -3 6 -8 10 -11 10 -2 0
-4 -4 -4 -10z"/>
<path d="M327 2593 c-15 -15 -6 -33 18 -33 33 0 50 -32 27 -53 -9 -8 -26 -17
-37 -20 -19 -4 -18 -5 2 -6 12 0 25 4 28 9 10 16 73 12 83 -6 8 -15 10 -15 15
0 4 10 1 16 -9 16 -8 0 -37 23 -64 50 -52 53 -53 54 -63 43z"/>
<path d="M431 2586 c-10 -11 -8 -16 9 -21 22 -7 53 11 44 26 -8 14 -40 11 -53
-5z"/>
<path d="M41 2561 c0 -3 3 -13 7 -21 6 -14 9 -14 24 1 15 16 14 17 -8 22 -13
2 -24 1 -23 -2z"/>
<path d="M6593 2521 c1 -12 6 -20 12 -18 14 5 13 29 -2 34 -7 3 -11 -4 -10
-16z"/>
<path d="M96 2514 c-9 -23 -8 -24 14 -24 23 0 26 13 6 29 -11 9 -15 8 -20 -5z"/>
<path d="M195 2509 c-10 -15 3 -25 16 -12 7 7 7 13 1 17 -6 3 -14 1 -17 -5z"/>
<path d="M1727 2513 c-13 -12 -7 -33 8 -33 8 0 15 9 15 20 0 20 -11 26 -23 13z"/>
<path d="M6521 2504 c0 -11 3 -14 6 -6 3 7 2 16 -1 19 -3 4 -6 -2 -5 -13z"/>
<path d="M51 2463 c0 -15 4 -37 8 -48 7 -16 9 -14 14 14 5 23 2 37 -8 48 -13
13 -15 11 -14 -14z"/>
<path d="M151 2463 c7 -10 15 -20 16 -22 2 -2 3 5 3 17 0 14 -6 22 -16 22 -14
0 -15 -3 -3 -17z"/>
<path d="M242 2460 c0 -14 2 -19 5 -12 2 6 2 18 0 25 -3 6 -5 1 -5 -13z"/>
<path d="M380 2441 c0 -11 49 -21 55 -11 3 4 -5 10 -18 14 -30 8 -37 7 -37 -3z"/>
<path d="M118 2403 c7 -3 16 -2 19 1 4 3 -2 6 -13 5 -11 0 -14 -3 -6 -6z"/>
<path d="M215 2400 c3 -5 8 -10 11 -10 2 0 4 5 4 10 0 6 -5 10 -11 10 -5 0 -7
-4 -4 -10z"/>
<path d="M332 2390 c-7 -12 -23 -20 -38 -20 -14 0 -23 -4 -19 -10 8 -12 45
-13 45 -1 0 5 8 11 18 13 10 3 19 13 19 22 0 22 -10 20 -25 -4z"/>
<path d="M56 2381 c-4 -5 -2 -12 3 -15 5 -4 12 -2 15 3 4 5 2 12 -3 15 -5 4
-12 2 -15 -3z"/>
<path d="M102 2381 c-10 -6 -9 -11 4 -22 13 -11 18 -11 21 -1 3 6 11 12 19 12
8 0 14 5 14 10 0 12 -40 13 -58 1z"/>
<path d="M1385 2370 c3 -5 10 -10 16 -10 5 0 9 5 9 10 0 6 -7 10 -16 10 -8 0
-12 -4 -9 -10z"/>
<path d="M116 2331 c-3 -5 1 -11 9 -14 9 -4 12 -1 8 9 -6 16 -10 17 -17 5z"/>
<path d="M500 2330 c0 -5 5 -10 11 -10 5 0 7 5 4 10 -3 6 -8 10 -11 10 -2 0
-4 -4 -4 -10z"/>
<path d="M300 2320 c0 -5 8 -10 18 -10 11 0 24 -11 30 -25 10 -22 9 -25 -13
-31 -13 -3 -32 -1 -41 4 -25 14 -43 -13 -37 -55 5 -28 1 -34 -28 -52 -24 -15
-29 -21 -15 -21 14 0 17 -6 14 -25 -3 -14 1 -33 8 -42 7 -10 14 -13 14 -8 1 6
3 22 5 38 2 15 -1 27 -6 27 -5 0 -9 5 -9 10 0 6 9 10 19 10 24 0 36 16 19 24
-7 3 -3 3 10 0 26 -6 28 3 6 27 -23 26 -11 49 26 49 17 0 38 7 46 15 14 13 12
18 -14 45 -31 30 -52 38 -52 20z"/>
<path d="M408 2313 c6 -2 18 -2 25 0 6 3 1 5 -13 5 -14 0 -19 -2 -12 -5z"/>
<path d="M66 2248 c9 -82 14 -86 14 -10 0 33 -4 64 -10 67 -6 4 -8 -16 -4 -57z"/>
<path d="M183 2271 c-2 -24 3 -30 23 -34 13 -2 27 0 30 4 3 5 -2 9 -10 9 -9 0
-18 11 -22 25 -8 34 -19 32 -21 -4z"/>
<path d="M265 2290 c3 -5 8 -10 11 -10 2 0 4 5 4 10 0 6 -5 10 -11 10 -5 0 -7
-4 -4 -10z"/>
<path d="M450 2276 c0 -16 7 -26 21 -29 20 -5 20 -5 4 13 -9 10 -14 24 -10 29
3 6 1 11 -4 11 -6 0 -11 -11 -11 -24z"/>
<path d="M6557 2273 c-14 -13 -6 -23 18 -23 28 0 34 15 9 24 -19 7 -19 7 -27
-1z"/>
<path d="M385 2239 c-11 -16 -1 -19 13 -3 7 8 8 14 3 14 -5 0 -13 -5 -16 -11z"/>
<path d="M130 2179 c5 -18 7 -36 3 -42 -4 -6 0 -8 11 -4 10 4 22 7 27 7 6 0 8
4 4 9 -3 6 12 11 32 13 l38 4 -29 8 c-19 6 -35 5 -47 -3 -26 -16 -31 -14 -19
8 14 27 13 31 -9 31 -17 0 -18 -4 -11 -31z"/>
<path d="M390 2195 c0 -8 7 -15 15 -15 9 0 12 6 9 15 -4 8 -10 15 -15 15 -5 0
-9 -7 -9 -15z"/>
<path d="M490 2190 c0 -5 5 -10 10 -10 6 0 10 5 10 10 0 6 -4 10 -10 10 -5 0
-10 -4 -10 -10z"/>
<path d="M75 2125 c2 -22 5 -55 5 -73 0 -30 2 -32 20 -22 24 13 26 38 5 46 -8
4 -15 16 -16 28 0 11 -5 30 -10 41 -7 15 -8 10 -4 -20z"/>
<path d="M1478 2123 c7 -3 16 -2 19 1 4 3 -2 6 -13 5 -11 0 -14 -3 -6 -6z"/>
<path d="M105 2110 c-10 -16 4 -30 31 -30 l24 0 -20 20 c-23 23 -26 24 -35 10z"/>
<path d="M358 2103 c17 -7 15 -23 -4 -23 -20 0 -13 -24 9 -28 10 -2 20 4 23
12 7 18 -12 46 -30 45 -7 0 -6 -2 2 -6z"/>
<path d="M180 2061 c0 -10 7 -24 15 -31 12 -10 15 -10 15 3 0 23 -11 47 -21
47 -5 0 -9 -8 -9 -19z"/>
<path d="M290 2010 c0 -5 5 -10 10 -10 6 0 10 5 10 10 0 6 -4 10 -10 10 -5 0
-10 -4 -10 -10z"/>
<path d="M393 2006 c3 -7 0 -19 -6 -25 -6 -6 -7 -14 -4 -18 4 -4 14 0 23 8 15
16 10 49 -8 49 -6 0 -8 -6 -5 -14z"/>
<path d="M130 1985 c0 -11 5 -27 10 -35 8 -12 10 -12 10 -1 0 10 8 12 30 8 22
-5 30 -3 30 7 0 18 -30 30 -43 17 -7 -7 -15 -5 -23 7 -12 16 -13 16 -14 -3z"/>
<path d="M275 1970 c4 -6 11 -8 16 -5 14 9 11 15 -7 15 -8 0 -12 -5 -9 -10z"/>
<path d="M6495 1906 c-28 -9 -40 -18 -40 -32 0 -10 -10 -24 -23 -30 l-23 -12
23 -5 c39 -10 66 2 60 25 -4 18 -1 20 21 16 24 -5 27 -2 27 23 0 16 -1 29 -2
28 -2 -1 -21 -7 -43 -13z"/>
<path d="M6416 1903 c-12 -12 -6 -33 9 -33 8 0 15 6 15 14 0 17 -14 28 -24 19z"/>
<path d="M6260 1868 c0 -17 3 -19 12 -10 7 7 27 12 45 12 18 0 33 5 33 10 0 6
-20 10 -45 10 -40 0 -45 -3 -45 -22z"/>
<path d="M6370 1846 c0 -2 7 -6 15 -10 8 -3 15 -1 15 4 0 6 -7 10 -15 10 -8 0
-15 -2 -15 -4z"/>
<path d="M6255 1830 c-10 -17 12 -37 25 -24 8 8 6 15 -4 23 -10 9 -16 9 -21 1z"/>
<path d="M6308 1813 c6 -2 18 -2 25 0 6 3 1 5 -13 5 -14 0 -19 -2 -12 -5z"/>
<path d="M6427 1786 c-18 -14 -17 -15 3 -21 24 -8 46 7 36 24 -9 14 -17 13
-39 -3z"/>
<path d="M6500 1770 c0 -5 5 -10 10 -10 6 0 10 5 10 10 0 6 -4 10 -10 10 -5 0
-10 -4 -10 -10z"/>
<path d="M6253 1726 c5 -16 97 -20 97 -4 0 9 -17 13 -50 14 -33 1 -49 -3 -47
-10z"/>
<path d="M6425 1729 c-4 -6 -5 -13 -2 -16 7 -7 27 6 27 18 0 12 -17 12 -25 -2z"/>
<path d="M6606 1692 c-3 -6 1 -15 8 -21 8 -7 17 -8 20 -3 3 6 -1 15 -8 21 -8
7 -17 8 -20 3z"/>
<path d="M6480 1675 c0 -10 7 -15 18 -13 21 4 19 22 -2 26 -10 2 -16 -3 -16
-13z"/>
<path d="M6330 1670 c-8 -5 -12 -11 -9 -14 2 -3 11 -1 19 4 8 5 12 11 9 14 -2
3 -11 1 -19 -4z"/>
<path d="M6260 1660 c0 -5 5 -10 11 -10 5 0 7 5 4 10 -3 6 -8 10 -11 10 -2 0
-4 -4 -4 -10z"/>
<path d="M6486 1621 c-6 -9 39 -21 76 -21 17 0 18 3 8 15 -13 16 -75 21 -84 6z"/>
<path d="M6260 1604 c0 -14 3 -14 15 -4 8 7 15 14 15 16 0 2 -7 4 -15 4 -8 0
-15 -7 -15 -16z"/>
<path d="M6365 1610 c-3 -5 1 -10 9 -10 9 0 16 5 16 10 0 6 -4 10 -9 10 -6 0
-13 -4 -16 -10z"/>
<path d="M6597 1583 c-12 -11 -8 -23 7 -23 7 0 19 7 26 15 10 12 9 15 -7 15
-11 0 -23 -3 -26 -7z"/>
<path d="M1475 1570 c3 -5 13 -10 21 -10 8 0 14 5 14 10 0 6 -9 10 -21 10 -11
0 -17 -4 -14 -10z"/>
<path d="M6505 1570 c-3 -5 -1 -10 4 -10 6 0 11 5 11 10 0 6 -2 10 -4 10 -3 0
-8 -4 -11 -10z"/>
<path d="M6260 1504 c0 -41 4 -63 10 -59 6 3 10 14 10 24 0 25 20 41 54 41 28
0 29 1 11 14 -13 10 -25 11 -37 5 -27 -15 -36 -11 -30 16 2 15 0 25 -7 25 -7
0 -11 -24 -11 -66z"/>
<path d="M6602 1471 c-10 -6 -7 -10 12 -13 16 -3 25 -1 23 5 -5 15 -20 18 -35
8z"/>
<path d="M6308 1443 c6 -2 18 -2 25 0 6 3 1 5 -13 5 -14 0 -19 -2 -12 -5z"/>
<path d="M6610 1410 c-12 -8 -12 -10 5 -10 11 0 27 5 35 10 12 8 12 10 -5 10
-11 0 -27 -5 -35 -10z"/>
<path d="M6262 1300 c0 -14 2 -19 5 -12 2 6 2 18 0 25 -3 6 -5 1 -5 -13z"/>
<path d="M6881 1268 c-1 -10 6 -18 14 -18 8 0 15 5 15 11 0 5 -4 8 -9 5 -5 -4
-12 0 -14 6 -3 8 -6 6 -6 -4z"/>
<path d="M1427 1179 c4 -16 8 -17 14 -7 13 19 11 28 -5 28 -9 0 -12 -7 -9 -21z"/>
<path d="M6658 1153 c7 -3 16 -2 19 1 4 3 -2 6 -13 5 -11 0 -14 -3 -6 -6z"/>
<path d="M545 1069 c-132 -3 -276 -7 -321 -8 l-81 -1 4 -52 c2 -29 6 -77 9
-105 l5 -53 67 0 c55 0 71 -4 85 -20 9 -11 22 -20 29 -21 7 0 24 -2 38 -4 14
-2 19 -1 13 1 -21 9 -15 18 21 38 25 13 44 16 68 12 18 -4 54 -10 80 -13 l47
-5 5 -51 c2 -29 4 -78 4 -110 0 -32 5 -64 12 -72 8 -10 8 -24 2 -49 -6 -20 -7
-51 -2 -71 4 -19 4 -38 -1 -41 -5 -3 -41 -4 -79 -3 -43 1 -76 -3 -82 -9 -9 -9
-7 -12 9 -12 40 0 53 -11 53 -46 0 -19 5 -34 11 -34 6 0 9 15 7 37 l-3 37 45
0 c33 0 44 -4 42 -13 -2 -8 4 -31 12 -52 9 -21 13 -44 11 -52 -7 -16 -61 -21
-70 -7 -8 13 -105 11 -105 -2 0 -4 6 -9 13 -9 6 -1 32 -3 57 -5 94 -8 94 -8
120 -59 l25 -48 155 2 c315 5 387 8 423 20 40 14 41 15 37 114 -1 28 3 47 9
47 6 0 11 5 11 10 0 6 -73 10 -199 10 -110 0 -202 3 -204 8 -3 4 -12 131 -22
282 -9 151 -19 307 -23 345 l-7 70 -45 1 c-25 0 -153 -3 -285 -7z"/>
<path d="M6268 963 c7 -3 16 -2 19 1 4 3 -2 6 -13 5 -11 0 -14 -3 -6 -6z"/>
<path d="M170 773 c0 -27 5 -55 10 -63 8 -13 10 -12 10 4 0 10 7 24 16 31 13
9 14 16 6 31 -8 13 -11 15 -12 5 0 -13 -2 -13 -12 -2 -10 11 -10 14 0 18 17 6
15 23 -3 23 -11 0 -15 -12 -15 -47z"/>
<path d="M6943 760 c0 -25 2 -35 4 -22 2 12 2 32 0 45 -2 12 -4 2 -4 -23z"/>
<path d="M184 608 c6 -62 8 -148 7 -220 l-1 -38 -79 0 c-115 0 -111 3 -111
-101 0 -82 2 -89 20 -89 30 0 51 42 53 104 2 55 2 56 32 57 16 0 98 4 180 8
92 5 155 4 163 -2 9 -7 12 -2 12 19 0 16 -4 34 -8 40 -9 14 -76 26 -166 30
-77 3 -73 2 -78 29 -2 11 3 20 12 22 8 1 37 5 63 8 42 6 47 8 36 22 -12 13
-14 13 -25 -1 -6 -9 -25 -16 -43 -16 -30 0 -31 2 -31 40 0 22 -5 40 -10 40 -6
0 -8 20 -4 55 6 48 5 55 -11 55 -15 0 -17 -7 -11 -62z"/>
<path d="M6942 630 c0 -19 2 -27 5 -17 2 9 2 25 0 35 -3 9 -5 1 -5 -18z"/>
<path d="M378 633 c7 -3 16 -2 19 1 4 3 -2 6 -13 5 -11 0 -14 -3 -6 -6z"/>
<path d="M290 551 c0 -18 18 -21 30 -6 10 13 9 15 -9 15 -11 0 -21 -4 -21 -9z"/>
<path d="M6475 549 c-10 -15 -4 -17 37 -11 21 2 35 8 32 13 -7 13 -61 11 -69
-2z"/>
<path d="M7133 553 c15 -2 37 -2 50 0 12 2 0 4 -28 4 -27 0 -38 -2 -22 -4z"/>
<path d="M6613 543 c9 -2 23 -2 30 0 6 3 -1 5 -18 5 -16 0 -22 -2 -12 -5z"/>
<path d="M7020 540 c9 -4 31 -5 50 0 34 8 33 8 -15 9 -34 0 -45 -3 -35 -9z"/>
<path d="M6190 510 c19 -13 30 -13 30 0 0 6 -10 10 -22 10 -19 0 -20 -2 -8
-10z"/>
<path d="M6243 483 c9 -2 25 -2 35 0 9 3 1 5 -18 5 -19 0 -27 -2 -17 -5z"/>
<path d="M414 469 c-9 -15 1 -21 26 -17 21 3 21 3 1 15 -14 9 -22 9 -27 2z"/>
<path d="M6333 263 c9 -2 23 -2 30 0 6 3 -1 5 -18 5 -16 0 -22 -2 -12 -5z"/>
<path d="M6403 133 c15 -2 39 -2 55 0 15 2 2 4 -28 4 -30 0 -43 -2 -27 -4z"/>
</g>
</svg>
